<svg width="16" height="16" viewBox="0 0 16 16" fill="none" xmlns="http://www.w3.org/2000/svg">
<path fill-rule="evenodd" clip-rule="evenodd" d="M4.70188 0.0480915C5.55497 0.00881881 5.82697 9.15527e-05 8.00006 9.15527e-05C10.1732 9.15527e-05 10.4452 0.00954609 11.2975 0.0480915C12.1499 0.086637 12.7317 0.222637 13.2408 0.419728C13.7739 0.621183 14.2575 0.936091 14.6575 1.34336C15.0648 1.74264 15.379 2.22555 15.5797 2.75936C15.7775 3.26846 15.9128 3.85027 15.9521 4.70118C15.9913 5.55573 16.0001 5.82773 16.0001 8.00009C16.0001 10.1732 15.9906 10.4452 15.9521 11.2983C15.9135 12.1492 15.7775 12.731 15.5797 13.2401C15.379 13.774 15.0643 14.2577 14.6575 14.6575C14.2575 15.0648 13.7739 15.379 13.2408 15.5797C12.7317 15.7775 12.1499 15.9128 11.299 15.9521C10.4452 15.9914 10.1732 16.0001 8.00006 16.0001C5.82697 16.0001 5.55497 15.9906 4.70188 15.9521C3.85097 15.9135 3.26915 15.7775 2.76006 15.5797C2.22619 15.379 1.74248 15.0643 1.34261 14.6575C0.93561 14.258 0.620654 13.7746 0.419697 13.2408C0.222607 12.7317 0.0873338 12.1499 0.048061 11.299C0.0087883 10.4445 6.10352e-05 10.1725 6.10352e-05 8.00009C6.10352e-05 5.827 0.00951557 5.555 0.048061 4.70264C0.0866065 3.85027 0.222607 3.26846 0.419697 2.75936C0.62095 2.22561 0.936147 1.74214 1.34333 1.34264C1.74264 0.935729 2.22586 0.620778 2.75933 0.419728C3.26842 0.222637 3.85024 0.0873643 4.70115 0.0480915H4.70188ZM11.2328 1.48809C10.3892 1.44955 10.1361 1.44155 8.00006 1.44155C5.86406 1.44155 5.61097 1.44955 4.76733 1.48809C3.98697 1.52373 3.5637 1.65391 3.28152 1.76373C2.90842 1.90918 2.64152 2.08155 2.36152 2.36155C2.09609 2.61977 1.89183 2.93412 1.7637 3.28155C1.65388 3.56373 1.5237 3.987 1.48806 4.76736C1.44952 5.611 1.44152 5.86409 1.44152 8.00009C1.44152 10.1361 1.44952 10.3892 1.48806 11.2328C1.5237 12.0132 1.65388 12.4365 1.7637 12.7186C1.8917 13.0655 2.09606 13.3805 2.36152 13.6386C2.6197 13.9041 2.93461 14.1085 3.28152 14.2365C3.5637 14.3463 3.98697 14.4765 4.76733 14.5121C5.61097 14.5506 5.86333 14.5586 8.00006 14.5586C10.1368 14.5586 10.3892 14.5506 11.2328 14.5121C12.0132 14.4765 12.4364 14.3463 12.7186 14.2365C13.0917 14.091 13.3586 13.9186 13.6386 13.6386C13.9041 13.3805 14.1084 13.0655 14.2364 12.7186C14.3462 12.4365 14.4764 12.0132 14.5121 11.2328C14.5506 10.3892 14.5586 10.1361 14.5586 8.00009C14.5586 5.86409 14.5506 5.611 14.5121 4.76736C14.4764 3.987 14.3462 3.56373 14.2364 3.28155C14.091 2.90846 13.9186 2.64155 13.6386 2.36155C13.3804 2.09614 13.066 1.89188 12.7186 1.76373C12.4364 1.65391 12.0132 1.52373 11.2328 1.48809ZM6.97824 10.4663C7.5489 10.7038 8.18434 10.7359 8.77601 10.557C9.36768 10.3781 9.87889 9.9993 10.2223 9.48536C10.5658 8.97141 10.7201 8.35418 10.659 7.73908C10.5979 7.12397 10.3252 6.54916 9.88733 6.11282C9.60823 5.83389 9.27076 5.62032 8.89921 5.48747C8.52766 5.35462 8.13128 5.30581 7.7386 5.34454C7.34592 5.38327 6.96672 5.50858 6.62828 5.71146C6.28985 5.91433 6.0006 6.18972 5.78137 6.5178C5.56214 6.84588 5.41838 7.21848 5.36044 7.60879C5.30249 7.9991 5.33181 8.3974 5.44627 8.77501C5.56074 9.15263 5.7575 9.50017 6.0224 9.79262C6.2873 10.0851 6.61375 10.3151 6.97824 10.4663ZM5.09242 5.09246C5.47426 4.71062 5.92757 4.40773 6.42646 4.20108C6.92535 3.99443 7.46006 3.88807 8.00006 3.88807C8.54006 3.88807 9.07477 3.99443 9.57366 4.20108C10.0726 4.40773 10.5259 4.71062 10.9077 5.09246C11.2895 5.47429 11.5924 5.9276 11.7991 6.42649C12.0057 6.92538 12.1121 7.46009 12.1121 8.00009C12.1121 8.54009 12.0057 9.0748 11.7991 9.57369C11.5924 10.0726 11.2895 10.5259 10.9077 10.9077C10.1365 11.6789 9.09064 12.1121 8.00006 12.1121C6.90949 12.1121 5.86358 11.6789 5.09242 10.9077C4.32127 10.1366 3.88804 9.09067 3.88804 8.00009C3.88804 6.90952 4.32127 5.86361 5.09242 5.09246ZM13.0241 4.50046C13.1187 4.4112 13.1944 4.30386 13.2468 4.1848C13.2992 4.06574 13.3272 3.93738 13.3291 3.80731C13.331 3.67725 13.3068 3.54813 13.2579 3.42759C13.209 3.30705 13.1364 3.19755 13.0444 3.10557C12.9524 3.0136 12.8429 2.94101 12.7224 2.8921C12.6018 2.8432 12.4727 2.81898 12.3427 2.82088C12.2126 2.82278 12.0842 2.85075 11.9652 2.90314C11.8461 2.95554 11.7388 3.03129 11.6495 3.12591C11.4759 3.30993 11.3809 3.55436 11.3846 3.80731C11.3883 4.06027 11.4904 4.30182 11.6693 4.4807C11.8481 4.65959 12.0897 4.76171 12.3427 4.7654C12.5956 4.76909 12.84 4.67405 13.0241 4.50046Z" fill="#171616"/>
</svg>
