<svg width="16" height="14" viewBox="0 0 16 14" fill="none" xmlns="http://www.w3.org/2000/svg">
<path d="M0.241656 6.53824C1.8785 5.63665 3.70567 4.88413 5.41287 4.12778C8.34994 2.88894 11.2987 1.67157 14.2772 0.538216C14.8567 0.345115 15.8979 0.156296 16 1.01506C15.9441 2.23068 15.7141 3.43918 15.5564 4.64768C15.156 7.30528 14.6932 9.95378 14.2419 12.6026C14.0864 13.485 12.9811 13.9417 12.2739 13.3771C10.5743 12.229 8.86159 11.0921 7.18367 9.91748C6.63402 9.359 7.14371 8.55694 7.63459 8.15812C9.03445 6.77856 10.519 5.60646 11.8457 4.15561C12.2036 3.29143 11.1462 4.01973 10.7974 4.2429C8.88099 5.56354 7.01147 6.9648 4.99097 8.12546C3.95889 8.69359 2.75599 8.20808 1.72439 7.89108C0.799442 7.50811 -0.555975 7.12227 0.241562 6.53835L0.241656 6.53824Z" fill="#171616"/>
</svg>
