<svg width="14" height="16" viewBox="0 0 14 16" fill="none" xmlns="http://www.w3.org/2000/svg">
<path d="M10.8333 2.85C10.2637 2.19969 9.94977 1.36453 9.95001 0.5H7.37501V10.8333C7.35515 11.3925 7.11907 11.9222 6.71648 12.3108C6.31389 12.6994 5.77621 12.9166 5.21667 12.9167C4.03334 12.9167 3.05001 11.95 3.05001 10.75C3.05001 9.31667 4.43334 8.24167 5.85834 8.68333V6.05C2.98334 5.66667 0.466675 7.9 0.466675 10.75C0.466675 13.525 2.76668 15.5 5.20834 15.5C7.82501 15.5 9.95001 13.375 9.95001 10.75V5.50833C10.9942 6.25821 12.2478 6.66054 13.5333 6.65833V4.08333C13.5333 4.08333 11.9667 4.15833 10.8333 2.85Z" fill="#171616"/>
</svg>
