<svg width="16" height="16" viewBox="0 0 16 16" fill="none" xmlns="http://www.w3.org/2000/svg">
<path fill-rule="evenodd" clip-rule="evenodd" d="M8.07164 15.8625H8.06836C6.74143 15.8621 5.4376 15.5291 4.27957 14.8975L0.0765991 16L1.20139 11.8916C0.507562 10.6892 0.142476 9.32527 0.143071 7.92791C0.14481 3.5565 3.7015 0 8.07156 0C10.1925 0.000915378 12.1832 0.826592 13.68 2.32523C15.1769 3.82379 16.0009 5.81574 16 7.93417C15.9983 12.3046 12.443 15.8607 8.07164 15.8625ZM4.47414 13.4624L4.71477 13.6052C5.72653 14.2056 6.88632 14.5233 8.0688 14.5237H8.07147C11.7036 14.5237 14.6597 11.5675 14.6612 7.93394C14.6619 6.17312 13.9771 4.51749 12.7329 3.27189C11.4888 2.02628 9.8342 1.33997 8.07407 1.33936C4.43917 1.33936 1.48297 4.29528 1.48153 7.9286C1.48102 9.17376 1.82942 10.3864 2.48906 11.4356L2.64575 11.6849L1.98003 14.1166L4.47414 13.4624ZM11.7948 9.6413C11.933 9.70808 12.0263 9.75317 12.0661 9.81967C12.1156 9.90227 12.1156 10.2989 11.9506 10.7617C11.7855 11.2245 10.9941 11.6468 10.6134 11.7037C10.2721 11.7547 9.84023 11.776 9.36567 11.6252C9.07794 11.5339 8.70896 11.412 8.23632 11.2079C6.37913 10.4059 5.12405 8.60593 4.88684 8.26573C4.87023 8.24189 4.85861 8.22523 4.85212 8.21657L4.85053 8.21444C4.74569 8.07456 4.04321 7.13729 4.04321 6.16725C4.04321 5.25473 4.49146 4.77643 4.69778 4.55627C4.71192 4.54119 4.72492 4.52732 4.73656 4.5146C4.91814 4.31627 5.13278 4.26668 5.26484 4.26668C5.39689 4.26668 5.5291 4.2679 5.64452 4.2737C5.65877 4.27442 5.67358 4.27433 5.68889 4.27424C5.80434 4.27356 5.94827 4.27272 6.09025 4.61377C6.14487 4.74502 6.2248 4.9396 6.30909 5.14483C6.47956 5.55983 6.6679 6.01836 6.70104 6.08471C6.75057 6.18388 6.78358 6.29952 6.71755 6.4318C6.70764 6.45163 6.69847 6.47035 6.68971 6.48823C6.64012 6.58948 6.60363 6.66397 6.51946 6.76225C6.48635 6.8009 6.45214 6.84256 6.41793 6.88422C6.34978 6.96722 6.28163 7.05022 6.22229 7.10933C6.12312 7.20812 6.01988 7.31529 6.13544 7.51363C6.251 7.71196 6.64858 8.36066 7.23751 8.88598C7.87057 9.45065 8.42079 9.68931 8.69969 9.81029C8.75415 9.83391 8.79827 9.85305 8.83063 9.86925C9.02866 9.96844 9.14423 9.95185 9.2598 9.81967C9.37536 9.68746 9.75502 9.24119 9.88706 9.04289C10.0191 8.84464 10.1512 8.87766 10.3328 8.94374C10.5144 9.00992 11.4884 9.48911 11.6865 9.58826C11.7252 9.60763 11.7613 9.6251 11.7948 9.6413Z" fill="#171616"/>
</svg>
