<svg width="696" height="496" viewBox="0 0 696 496" fill="none" xmlns="http://www.w3.org/2000/svg">
<path fill-rule="evenodd" clip-rule="evenodd" d="M300.689 350.83C300.304 349.884 299.63 349.034 298.684 348.649C295.716 347.51 291.689 350.173 289.78 352.162C283.363 358.706 282.4 369.822 283.17 378.451C286.042 408.447 314.005 427.053 341.775 426.299C425.856 429.523 454.108 320.931 404.022 264.358C396.081 255.439 390.417 254.573 387.353 242.238C380.359 213.478 413.969 189.37 441.081 198.866L442.702 199.443L444.145 200.389C482.167 225.252 499.782 270.341 501.034 314.114C502.574 364.047 483.611 413.884 449.905 450.809C425.102 478.045 387.562 492.289 351.273 494.566C293.053 498.368 233.87 471.982 215.774 413.596C197.485 354.648 219.319 286.301 279.544 261.535C310.379 248.815 343.7 252.328 372.433 268.56C395.792 281.665 405.658 299.309 410.455 324.653C414.867 348.2 406.428 371.827 389.294 388.444C374.647 402.592 352.331 412.264 332.037 405.239C317.679 400.394 308.775 388.525 304.555 374.49C303.031 369.357 302.261 364.047 301.684 358.738C301.395 356.557 301.299 353.044 300.721 350.862L300.689 350.83ZM571.206 158.99L544.013 188.038C521.986 211.585 484.83 220.889 462.146 192.401C446.055 172.175 473.247 144.088 486.371 129.652L546.885 63.294C559.815 49.1466 583.944 17.5474 605.682 25.4231C620.426 30.7324 633.645 40.2282 637.576 56.0759C643.319 79.2379 625.8 103.731 611.426 120.253C598.784 134.593 585.276 146.35 571.206 158.99ZM403.059 107.918C399.899 124.343 397.22 139.709 392.423 155.942C387.257 173.971 376.909 204.833 354.979 207.96C344.438 209.484 335.438 204.063 328.652 196.572C270.432 132.026 326.55 60.9201 371.166 9.38295C390.129 -12.4477 424.316 6.62404 420.097 37.758C416.648 62.5401 409.461 84.0821 403.059 107.902V107.918ZM177.543 58.2734C184.153 53.1406 189.511 53.333 197.372 52.6754C209.725 51.729 222.464 54.0067 230.405 64.3526C245.148 83.3442 231.929 109.057 235.956 128.61C237.015 133.646 239.02 138.298 241.41 142.853C253.186 164.78 270.801 178.928 275.694 205.121C278.277 218.884 269.662 232.454 260.181 241.661C248.02 253.434 223.603 266.716 210.094 249.248C200.902 237.378 198.704 224.097 191.324 212.035C177.254 189.161 166.907 157.354 163.457 130.775C161.067 111.976 158.292 70.5923 177.527 58.2574L177.543 58.2734ZM73.4564 265.497C91.8417 268.159 109.649 269.859 127.553 275.65C156.094 284.857 177.158 302.229 186.062 331.742C188.164 339.057 188.067 346.548 184.249 353.284C171.992 375.019 127.842 371.217 106.296 370.945C77.0821 370.56 28.7285 378.532 10.5358 349.306C1.05441 334.116 0.573176 312.671 0.669434 295.203C0.765692 287.889 2.8673 281.055 7.66415 275.457C22.3114 258.471 53.6273 262.641 73.4564 265.497ZM617.746 292.46C639.773 285.916 687.261 272.057 693.678 306.319C696.357 320.931 695.026 340.404 688.127 353.685C674.33 380.168 648.581 376.559 624.164 381.114C618.324 382.157 612.581 383.296 606.741 384.338C581.361 388.894 546.612 384.242 539.906 354.439C533.97 328.246 556.382 308.115 579.452 301.09C591.901 297.288 605.121 296.246 617.763 292.444L617.746 292.46Z" fill="#F5811E"/>
<path fill-rule="evenodd" clip-rule="evenodd" d="M300.881 350.926C300.496 349.98 299.822 349.13 298.875 348.745C295.907 347.606 291.88 350.269 289.971 352.258C283.554 358.802 282.592 369.918 283.362 378.548C286.233 408.447 314.196 427.149 341.967 426.395C426.048 429.523 454.3 320.931 404.213 264.454C396.272 255.535 390.609 254.669 387.545 242.334C380.55 213.574 414.16 189.466 441.273 198.962L442.893 199.539L444.337 200.486C482.359 225.348 499.974 270.437 501.225 314.21C502.765 364.144 483.803 413.884 450.096 450.905C425.294 478.141 387.753 492.385 351.368 494.662C293.244 498.464 234.062 472.078 215.965 413.692C197.676 354.744 219.511 286.301 279.736 261.631C310.571 248.911 343.796 252.424 372.625 268.656C395.887 281.761 405.85 299.405 410.647 324.749C415.058 348.296 406.62 371.923 389.486 388.541C374.839 402.688 352.523 412.264 332.229 405.335C317.87 400.394 308.966 388.621 304.747 374.586C303.207 369.373 302.453 364.144 301.875 358.834C301.586 356.557 301.49 353.14 300.913 350.958L300.881 350.926ZM571.397 159.086L544.204 188.135C522.177 211.682 485.022 220.985 462.337 192.498C446.246 172.271 473.439 144.088 486.562 129.748L547.076 63.3901C560.007 49.2427 584.135 17.5473 605.874 25.423C620.617 30.8285 633.837 40.2281 637.767 56.172C643.51 79.3341 625.992 103.731 611.617 120.349C598.975 134.689 585.467 146.446 571.397 159.086ZM403.251 108.014C399.994 124.439 397.411 139.806 392.614 156.038C387.448 173.971 377.101 204.929 355.17 208.057C344.63 209.484 335.63 204.159 328.843 196.572C270.624 132.026 326.742 61.0162 371.357 9.47906C390.32 -12.4479 424.508 6.72015 420.288 37.8541C416.839 62.54 409.556 84.1782 403.251 107.998V108.014ZM177.735 58.3695C184.248 53.1565 189.703 53.4292 197.564 52.7715C209.917 51.7289 222.655 54.0066 230.596 64.3525C245.34 83.4243 232.04 109.153 236.147 128.706C237.206 133.742 239.115 138.394 241.602 142.949C253.281 164.78 270.992 179.024 275.886 205.217C278.469 218.98 269.757 232.454 260.372 241.661C248.211 253.434 223.794 266.812 210.286 249.344C201.093 237.378 198.895 224.193 191.516 212.131C177.446 189.257 167.098 157.45 163.649 130.871C161.258 112.072 158.483 70.6884 177.719 58.3535L177.735 58.3695ZM73.6478 265.593C92.0331 268.255 109.841 269.956 127.745 275.65C156.285 284.857 177.35 302.325 186.253 331.839C188.355 339.153 188.163 346.644 184.441 353.381C172.088 375.115 128.033 371.313 106.488 371.041C77.2735 370.656 28.92 378.628 10.7272 349.403C1.24581 334.213 0.764583 312.767 0.860841 295.299C0.860841 287.985 3.0587 281.055 7.85556 275.457C22.5028 258.471 53.8187 262.737 73.6478 265.593ZM617.938 292.556C639.869 286.012 687.452 272.153 693.869 306.415C696.549 320.931 695.217 340.5 688.319 353.782C674.522 380.168 648.773 376.655 624.355 381.21C618.516 382.253 612.772 383.392 606.932 384.434C581.552 388.894 546.803 384.338 540.001 354.535C534.161 328.342 556.573 308.115 579.643 301.186C592.093 297.384 605.312 296.342 617.954 292.54L617.938 292.556Z" fill="#FEFEFE"/>
<path fill-rule="evenodd" clip-rule="evenodd" d="M269.275 379.878C281.147 447.279 359.389 448.883 399.416 420.797C462.433 376.751 442.507 274.142 403.635 244.708C391.86 222.973 419.726 206.259 436.571 212.146C499.861 253.53 506.952 367.543 439.539 441.489C385.715 500.436 256.361 496.17 229.441 409.505C200.05 314.675 286.329 236.174 365.613 280.782C388.314 293.598 393.576 310.874 396.641 327.299C406.699 381.033 333.158 420.604 318.303 370.591C315.431 360.726 315.912 350.188 314.083 345.905C304.698 322.936 261.318 335.174 269.275 379.894V379.878Z" fill="#F5811E"/>
<path fill-rule="evenodd" clip-rule="evenodd" d="M496.99 139.244L557.601 72.7895C568.895 60.3584 589.959 34.6299 600.981 38.7041C666.003 62.3473 578.473 133.822 561.435 149.109L533.857 178.542C513.835 199.908 487.894 201.897 473.536 183.755C465.963 174.356 482.343 155.284 496.99 139.244Z" fill="#8DD7F7"/>
<path fill-rule="evenodd" clip-rule="evenodd" d="M406.204 35.9607C402.466 62.7318 396.049 79.9108 389.343 104.773C388.669 107.532 372.017 223.326 339.449 187.268C287.358 129.459 343.187 63.5819 382.059 18.6855C390.771 8.62826 408.771 16.889 406.188 35.9607H406.204Z" fill="#00A550"/>
<path fill-rule="evenodd" clip-rule="evenodd" d="M185.964 69.8537C189.798 66.5334 194.386 67.0948 198.702 66.8221C238.729 63.5018 216.895 106.024 222.253 131.56C228.381 160.898 256.537 179.023 261.991 207.783C265.152 225.155 230.676 252.583 221.579 240.81C213.542 230.368 210.766 216.509 203.579 204.832C190.456 183.466 180.782 153.102 177.718 129.09C173.787 98.6138 177.525 74.3129 185.948 69.8537H185.964Z" fill="#FFF100"/>
<path fill-rule="evenodd" clip-rule="evenodd" d="M71.5303 279.435C104.852 284.279 157.906 286.749 172.553 335.816C179.644 359.267 140.371 357.358 106.568 356.989C86.1775 356.7 36.2838 363.726 22.7756 341.991C14.8343 329.175 14.9307 307.248 15.0269 295.379C15.2194 273.74 43.9524 275.441 71.5303 279.435Z" fill="#00ADEF"/>
<path fill-rule="evenodd" clip-rule="evenodd" d="M621.948 306.014C607.975 310.184 594.756 311.227 583.734 314.563C537.386 328.614 543.803 381.387 604.413 370.576C610.157 369.533 615.996 368.394 621.74 367.351C641.745 363.646 665.505 366.87 675.644 347.317C681.773 335.64 681.676 318.365 679.864 308.965C676.703 291.786 648.548 298.042 621.932 306.03L621.948 306.014Z" fill="#C656A0"/>
</svg>
