<svg width="24" height="24" viewBox="0 0 24 24" fill="none" xmlns="http://www.w3.org/2000/svg">
<path fill-rule="evenodd" clip-rule="evenodd" d="M21.9999 12.0001C21.9999 17.4528 17.4132 22 12 22C6.52754 22 2 17.4921 2 12.0001C2 6.50786 6.52754 2 12 2C17.492 2 21.9999 6.50786 21.9999 12.0001ZM4.99222 11.9803C4.99222 12.8268 5.6812 13.5353 6.52764 13.5353C7.3741 13.5353 8.06306 12.8268 8.06306 11.9803C8.06306 11.1732 7.3741 10.4448 6.52764 10.4448C5.6812 10.4448 4.99222 11.1535 4.99222 11.9803ZM10.4646 11.9803C10.4646 12.8268 11.1733 13.5353 12.0197 13.5353C12.8465 13.5353 13.5552 12.8268 13.5552 11.9803C13.5552 11.1732 12.8465 10.4448 12.0197 10.4448C11.1733 10.4448 10.4646 11.1535 10.4646 11.9803ZM15.937 11.9803C15.937 12.8268 16.626 13.5353 17.4725 13.5353C18.2993 13.5353 19.008 12.8268 19.008 11.9803C19.008 11.1732 18.3189 10.4448 17.4725 10.4448C16.626 10.4448 15.937 11.1535 15.937 11.9803Z" fill="#667085"/>
</svg>
