<svg class="svg-icon" style="width: 1em; height: 1em;vertical-align: middle;fill: currentColor;overflow: hidden;" viewBox="0 0 1024 1024" version="1.1" xmlns="http://www.w3.org/2000/svg"><path d="M620.9 67.2H236.5c-30.3 0-54.9 25-54.9 55.9v782.7c0 30.9 24.6 55.9 54.9 55.9h549c30.3 0 54.9-25 54.9-55.9v-615L620.9 67.2z" fill="#FFC639" /><path d="M802 925.9H220.1V109.7h379.6v218.9H802z" fill="#FFFFFF" /><path d="M802 922.6H220.1V106.4h379.6v218.8H802z" fill="#FFD773" /><path d="M368.9 650.4v99.9c0 16.5-3.5 28.9-10.3 37.2-7.8 8.7-20.2 13.2-37.2 13.2-14.7 0-25.8-4.1-33.2-12.2-7.8-8.3-11.8-19.4-11.8-33.9v-5H299v4.7c0 17.5 7.6 26.4 22.9 26.4 8.7 0 14.9-2.7 18.8-7.6 3.7-5 5.8-12.8 5.8-23.7v-99.1h22.4zM458.9 650.4c35.1 0 52.6 14.9 52.6 44.8 0 30.1-17.8 45.2-53.1 45.2h-38.2v57.4h-22.5V650.4h61.2z m-38.6 70.8H457c11.1 0 19.2-2.1 24.4-6.2 5-4.1 7.6-10.7 7.6-19.8 0-9.1-2.7-15.7-7.8-19.4-5.2-4.1-13.2-6.2-24.2-6.2h-36.7v51.6zM640.8 660.3c10.5 8.3 17.1 20.4 19.8 36.9h-22.7c-2.1-9.9-6.6-17.3-13.6-22.3-7-5.2-16.5-7.6-28.1-7.6-14.2 0-25.6 4.7-34.1 14.7-9.1 10.3-13.4 24.6-13.4 42.7 0 17.8 3.9 31.4 12.2 40.9 8.7 10.3 22.3 15.5 40.7 15.5 7.2 0 14-1 20.4-2.7 6.2-1.7 11.6-4.1 16.5-7.2v-32h-40.7V720H661v61.9c-7.6 6-16.5 10.5-26.6 13.8-10.7 3.3-22.5 5-35.3 5-23.5 0-41.7-7.4-54.7-22.3-12.2-13.8-18.2-31.8-18.2-53.7 0-22.1 6-40.3 18.2-54.5 12.8-15.3 30.1-22.7 51.8-22.7 18.8 0 33.7 4.1 44.6 12.8z" fill="#FFFFFF" /></svg>