<svg class="svg-icon" style="width: 1em; height: 1em;vertical-align: middle;fill: currentColor;overflow: hidden;" viewBox="0 0 1024 1024" version="1.1" xmlns="http://www.w3.org/2000/svg"><path d="M620.9 67.2H236.5c-30.3 0-54.9 25-54.9 55.9v782.7c0 30.9 24.6 55.9 54.9 55.9h549c30.3 0 54.9-25 54.9-55.9v-615L620.9 67.2z" fill="#61CFEA" /><path d="M802 925.9H220.1V109.7h379.6v218.9H802z" fill="#FFFFFF" /><path d="M802 922.6H220.1V106.4h379.6v218.8H802z" fill="#6CDEEA" /><path d="M397.2 650.4v19.2h-49.1v128.2h-22.3V669.6h-49.3v-19.2h120.7zM432.5 650.4l35.9 53.3 35.9-53.3h27.5l-50 71.2 53.5 76.2h-27.5l-39.4-58.4-39.4 58.4h-27.5l53-76.2-49.5-71.2h27.5zM660.2 650.4v19.2h-49.1v128.2h-22.3V669.6h-49.3v-19.2h120.7z" fill="#FFFFFF" /></svg>