<svg class="svg-icon" style="width: 1em; height: 1em;vertical-align: middle;fill: currentColor;overflow: hidden;" viewBox="0 0 1024 1024" version="1.1" xmlns="http://www.w3.org/2000/svg"><path d="M620.9 67.2H236.5c-30.3 0-54.9 25-54.9 55.9v782.7c0 30.9 24.6 55.9 54.9 55.9h549c30.3 0 54.9-25 54.9-55.9v-615L620.9 67.2z" fill="#E7ECEE" /><path d="M802 925.9H220.1V109.7h379.6v218.9H802z" fill="#FFFFFF" /><path d="M802 922.6H220.1V106.4h379.6v218.8H802z" fill="#F2F2F2" /><path d="M404 518.7h39v39.7h-39v-39.7zM365 479h39v39.7h-39V479z m39-39.7h39V479h-39v-39.7z m-39-39.7h39v39.7h-39v-39.7z m39-39.7h39v39.7h-39v-39.7z m-39-39.7h39v39.7h-39v-39.7z m39-39.7h39v39.7h-39v-39.7z m-39-39.7h39v39.7h-39v-39.7z m39-39.7h39v39.7h-39v-39.7z m-39-39.7h39v39.7h-39v-39.7z m39-39.7h39v39.7h-39v-39.7zM365 82h39v39.7h-39V82z" fill="#8D989B" /></svg>