<svg width="32" height="32" viewBox="0 0 32 32" fill="none" xmlns="http://www.w3.org/2000/svg">
<path d="M16 16V21.3333C16 21.3333 16 26.6667 18.6667 30.6667" stroke="#EF533F" stroke-width="2" stroke-linecap="round" stroke-linejoin="round"/>
<path d="M16 4.75903C15.032 3.25503 13.5307 2.08837 11.6667 1.58837C8.76533 0.811035 5.804 1.8577 4 4.02437" stroke="#EF533F" stroke-width="2" stroke-linecap="round" stroke-linejoin="round"/>
<path d="M28.001 4.02486C26.1956 1.85819 23.2356 0.811523 20.333 1.58886C18.4703 2.08886 16.969 3.25552 16.001 4.75952" stroke="#EF533F" stroke-width="2" stroke-linecap="round" stroke-linejoin="round"/>
<path d="M16.0001 10.677C14.0055 7.68104 10.1455 7.19837 6.60013 8.48104C2.4468 9.98237 0.3068 14.5424 1.81747 18.6664" stroke="#EF533F" stroke-width="2" stroke-linecap="round" stroke-linejoin="round"/>
<path d="M30.1827 18.6666C31.6933 14.5426 29.5533 9.98129 25.4013 8.47995C21.8547 7.19729 17.9947 7.68129 16 10.6773" stroke="#EF533F" stroke-width="2" stroke-linecap="round" stroke-linejoin="round"/>
<path d="M16.0005 15.5612C14.7312 13.6892 12.2752 12.8319 10.0179 13.6345C7.37653 14.5719 6.01387 17.4225 6.9752 19.9999" stroke="#EF533F" stroke-width="2" stroke-linecap="round" stroke-linejoin="round"/>
<path d="M25.0253 20C25.9867 17.4213 24.6253 14.572 21.9827 13.6347C19.7253 12.832 17.2693 13.6893 16 15.5613" stroke="#EF533F" stroke-width="2" stroke-linecap="round" stroke-linejoin="round"/>
</svg>
