<svg width="32" height="32" viewBox="0 0 32 32" fill="none" xmlns="http://www.w3.org/2000/svg">
<path d="M9.33301 24V30.6667" stroke="#EF533F" stroke-width="2" stroke-linecap="round" stroke-linejoin="round"/>
<path d="M1.33301 19.9999V18.6666C1.33301 15.7213 3.72101 13.3333 6.66634 13.3333C9.61167 13.3333 11.9997 15.7213 11.9997 18.6666V19.9999" stroke="#EF533F" stroke-width="2" stroke-linecap="round" stroke-linejoin="round"/>
<path d="M4 30.6667V24" stroke="#EF533F" stroke-width="2" stroke-linecap="round" stroke-linejoin="round"/>
<path fill-rule="evenodd" clip-rule="evenodd" d="M9.99967 4.66659C9.99967 6.50792 8.50767 7.99992 6.66634 7.99992C4.82501 7.99992 3.33301 6.50792 3.33301 4.66659C3.33301 2.82525 4.82501 1.33325 6.66634 1.33325C8.50767 1.33325 9.99967 2.82525 9.99967 4.66659Z" stroke="#EF533F" stroke-width="2" stroke-linecap="round" stroke-linejoin="round"/>
<path d="M26.666 25.3333V30.6666" stroke="#EF533F" stroke-width="2" stroke-linecap="round" stroke-linejoin="round"/>
<path d="M17.333 25.3333L19.1317 17.2386C19.6383 14.9573 21.6623 13.3333 23.9997 13.3333C26.337 13.3333 28.361 14.9573 28.8677 17.2386L30.6663 25.3333" stroke="#EF533F" stroke-width="2" stroke-linecap="round" stroke-linejoin="round"/>
<path d="M21.333 30.6666V25.3333" stroke="#EF533F" stroke-width="2" stroke-linecap="round" stroke-linejoin="round"/>
<path fill-rule="evenodd" clip-rule="evenodd" d="M27.3327 4.66659C27.3327 6.50792 25.8407 7.99992 23.9993 7.99992C22.158 7.99992 20.666 6.50792 20.666 4.66659C20.666 2.82525 22.158 1.33325 23.9993 1.33325C25.8407 1.33325 27.3327 2.82525 27.3327 4.66659Z" stroke="#EF533F" stroke-width="2" stroke-linecap="round" stroke-linejoin="round"/>
</svg>
