<svg width="32" height="32" viewBox="0 0 32 32" fill="none" xmlns="http://www.w3.org/2000/svg">
<path d="M21.7487 11.304C20.4487 5.85329 15.9993 2.66663 15.9993 2.66663C15.9993 2.66663 11.55 5.85463 10.25 11.3066" stroke="#EF533F" stroke-width="2" stroke-linecap="round" stroke-linejoin="round"/>
<path d="M15.9968 23.9577C15.3301 22.3484 14.2982 20.635 12.6088 19.1204C7.91415 14.5484 1.33948 14.895 1.33948 14.895C1.33948 14.895 0.967484 21.039 5.86215 25.423C8.82482 28.3097 12.5288 29.2324 14.8648 29.5217C14.8661 29.5644 17.1342 29.5644 17.1342 29.5324C19.4715 29.2444 23.1808 28.3244 26.1448 25.4377C31.0395 21.0537 30.6595 14.9017 30.6595 14.9017C30.6595 14.9017 24.0755 14.547 19.3822 19.1204C17.6928 20.6324 16.6621 22.3484 15.9968 23.9577" stroke="#EF533F" stroke-width="2" stroke-linecap="round" stroke-linejoin="round"/>
</svg>
