<svg width="18" height="15" viewBox="0 0 18 15" fill="none" xmlns="http://www.w3.org/2000/svg">
<path d="M1.14647 6.75576C2.83976 5.82308 4.72993 5.04461 6.49601 4.26218C9.53435 2.98062 12.5848 1.72127 15.666 0.548838C16.2654 0.349079 17.3426 0.153749 17.4482 1.04212C17.3903 2.29966 17.1524 3.54983 16.9893 4.8C16.5751 7.54925 16.0963 10.2891 15.6295 13.0293C15.4686 13.942 14.3252 14.4145 13.5936 13.8304C11.8354 12.6428 10.0636 11.4667 8.32786 10.2515C7.75927 9.67378 8.28653 8.84407 8.79434 8.43149C10.2425 7.00436 11.7782 5.79185 13.1507 4.29097C13.5209 3.39699 12.427 4.1504 12.0662 4.38127C10.0837 5.74745 8.14973 7.19703 6.05955 8.39771C4.99189 8.98543 3.74751 8.48318 2.68033 8.15525C1.72349 7.75907 0.321337 7.35993 1.14638 6.75588L1.14647 6.75576Z" fill="white"/>
</svg>
