<svg width="20" height="21" viewBox="0 0 20 21" fill="none" xmlns="http://www.w3.org/2000/svg">
<path fill-rule="evenodd" clip-rule="evenodd" d="M10.041 19.8554H10.0369C8.38174 19.8549 6.7554 19.4396 5.31094 18.6517L0.0683594 20.0269L1.47136 14.9023C0.605921 13.4025 0.150531 11.7012 0.151273 9.95822C0.153443 4.50553 4.58988 0.0693359 10.0409 0.0693359C12.6864 0.0704777 15.1695 1.10039 17.0366 2.96971C18.9038 4.83894 19.9315 7.3236 19.9304 9.96602C19.9282 15.4175 15.4936 19.8532 10.041 19.8554ZM5.55384 16.8614L5.85399 17.0395C7.11602 17.7885 8.56268 18.1847 10.0376 18.1853H10.041C14.5715 18.1853 18.2588 14.4979 18.2606 9.9655C18.2615 7.76914 17.4073 5.704 15.8554 4.15029C14.3035 2.59658 12.2397 1.74051 10.0442 1.73975C5.51022 1.73975 1.82281 5.42682 1.82102 9.95884C1.82038 11.512 2.25495 13.0246 3.07776 14.3333L3.2732 14.6443L2.44282 17.6775L5.55384 16.8614ZM14.6849 12.0951C14.8572 12.1784 14.9736 12.2347 15.0233 12.3176C15.0851 12.4207 15.0851 12.9154 14.8793 13.4927C14.6733 14.0699 13.6861 14.5967 13.2113 14.6676C12.7856 14.7313 12.2468 14.7578 11.6549 14.5697C11.296 14.4559 10.8358 14.3038 10.2462 14.0492C7.92964 13.0489 6.36412 10.8037 6.06824 10.3793C6.04751 10.3496 6.03301 10.3288 6.02492 10.318L6.02293 10.3153C5.89216 10.1409 5.01593 8.97175 5.01593 7.76179C5.01593 6.62356 5.57505 6.02695 5.83241 5.75233C5.85004 5.73352 5.86626 5.71621 5.88078 5.70035C6.10728 5.45296 6.375 5.39111 6.53973 5.39111C6.70444 5.39111 6.86935 5.39264 7.01333 5.39987C7.03109 5.40076 7.04957 5.40065 7.06867 5.40054C7.21267 5.39969 7.3922 5.39864 7.5693 5.82405C7.63743 5.98776 7.73713 6.23047 7.84227 6.48645C8.05491 7.00411 8.28984 7.57607 8.33117 7.65883C8.39296 7.78253 8.43413 7.92678 8.35177 8.09177C8.33941 8.1165 8.32797 8.13985 8.31705 8.16215C8.25518 8.28846 8.20967 8.38136 8.10467 8.50396C8.06339 8.55217 8.02071 8.60413 7.97804 8.6561C7.89303 8.75963 7.80803 8.86315 7.734 8.93689C7.6103 9.06011 7.48152 9.1938 7.62567 9.44119C7.76981 9.68858 8.26573 10.4977 9.00033 11.153C9.78999 11.8573 10.4763 12.155 10.8242 12.3059C10.8921 12.3354 10.9471 12.3593 10.9875 12.3795C11.2345 12.5032 11.3787 12.4825 11.5228 12.3176C11.667 12.1527 12.1406 11.5961 12.3053 11.3487C12.47 11.1014 12.6348 11.1426 12.8612 11.225C13.0878 11.3076 14.3027 11.9053 14.5498 12.029C14.598 12.0531 14.6431 12.0749 14.6849 12.0951Z" fill="#FDFDFD"/>
</svg>
