<?xml version="1.0" encoding="utf-8"?><!DOCTYPE svg PUBLIC "-//W3C//DTD SVG 1.1//EN"
        "http://www.w3.org/Graphics/SVG/1.1/DTD/svg11.dtd">
<svg viewBox="0 0 910.222 910.222" xmlns="http://www.w3.org/2000/svg" xmlns:xlink="http://www.w3.org/1999/xlink">
    <style>:root>svg{display:none}:root>svg:target{display:block}</style>
    <svg viewBox="0 0 7 11" id="arrow-down" xmlns="http://www.w3.org/2000/svg">
        <path fill-rule="evenodd" clip-rule="evenodd"
              d="M3.5.688a.344.344 0 01.344.343V9.14l2.163-2.164a.344.344 0 11.486.487l-2.75 2.75a.345.345 0 01-.486 0l-2.75-2.75a.344.344 0 01.486-.487L3.156 9.14V1.03A.344.344 0 013.5.688z"/>
    </svg>
    <svg fill="none" viewBox="0 0 76 8" id="arrow-right" xmlns="http://www.w3.org/2000/svg">
        <path d="M75.354 4.354a.5.5 0 000-.708L72.172.464a.5.5 0 10-.707.708L74.293 4l-2.829 2.828a.5.5 0 10.708.708l3.182-3.182zM0 4.5h75v-1H0v1z"
              fill="#000"/>
    </svg>
    <svg viewBox="0 0 24 30" id="calc" xmlns="http://www.w3.org/2000/svg">
        <path fill-rule="evenodd" clip-rule="evenodd"
              d="M19.5 1.875h-15A1.875 1.875 0 002.625 3.75v22.5A1.875 1.875 0 004.5 28.125h15a1.875 1.875 0 001.875-1.875V3.75A1.875 1.875 0 0019.5 1.875zM4.5 0A3.75 3.75 0 00.75 3.75v22.5A3.75 3.75 0 004.5 30h15a3.75 3.75 0 003.75-3.75V3.75A3.75 3.75 0 0019.5 0h-15z"/>
        <path d="M4.5 4.688a.937.937 0 01.938-.938h13.125a.937.937 0 01.937.938v3.75a.938.938 0 01-.938.937H5.438a.937.937 0 01-.937-.938v-3.75zm0 7.5a.937.937 0 01.938-.938h1.875a.938.938 0 01.937.938v1.874a.937.937 0 01-.938.938H5.438a.938.938 0 01-.937-.938v-1.874zm0 5.624a.937.937 0 01.938-.937h1.875a.938.938 0 01.937.938v1.875a.937.937 0 01-.938.937H5.438a.938.938 0 01-.937-.938v-1.875zm0 5.625a.937.937 0 01.938-.937h1.875a.938.938 0 01.937.938v1.875a.937.937 0 01-.938.937H5.438a.938.938 0 01-.937-.938v-1.875zm5.625-11.25a.938.938 0 01.938-.937h1.874a.938.938 0 01.938.938v1.874a.938.938 0 01-.938.938h-1.874a.938.938 0 01-.938-.938v-1.874zm0 5.626a.938.938 0 01.938-.938h1.874a.938.938 0 01.938.938v1.875a.938.938 0 01-.938.937h-1.874a.938.938 0 01-.938-.938v-1.875zm0 5.625a.938.938 0 01.938-.938h1.874a.938.938 0 01.938.938v1.875a.938.938 0 01-.938.937h-1.874a.938.938 0 01-.938-.938v-1.875zm5.625-11.25a.938.938 0 01.938-.938h1.875a.938.938 0 01.937.938v1.874a.938.938 0 01-.938.938h-1.875a.938.938 0 01-.937-.938v-1.874zm0 5.624a.938.938 0 01.938-.937h1.875a.938.938 0 01.937.938v7.5a.938.938 0 01-.938.937h-1.875a.938.938 0 01-.937-.938v-7.5z"/>
    </svg>
    <svg viewBox="-21 -21 682.667 682.667" id="check" xmlns="http://www.w3.org/2000/svg">
        <path d="M322.82 387.934L602.77 80.66l36.957 33.672-314.34 345.023-171.364-162.902 34.454-36.238zm297.493-178.868l-38.989 42.93C586.984 273.73 590 296.52 590 320c0 148.875-121.125 270-270 270S50 468.875 50 320 171.125 50 320 50c68.969 0 131.969 26.008 179.746 68.71l33.707-37.112C474.691 28.859 399.566 0 320 0 234.527 0 154.164 33.285 93.727 93.727 33.285 154.164 0 234.527 0 320s33.285 165.836 93.727 226.273C154.164 606.715 234.527 640 320 640s165.836-33.285 226.273-93.727C606.715 485.836 640 405.473 640 320c0-38.469-6.762-75.89-19.688-110.934zm0 0"/>
    </svg>
    <svg viewBox="0 0 384 384" id="close" xmlns="http://www.w3.org/2000/svg">
        <path d="M368 176c-8.832 0-16 7.168-16 16 0 88.224-71.776 160-160 160S32 280.224 32 192 103.776 32 192 32c42.952 0 83.272 16.784 113.536 47.264 6.224 6.264 16.36 6.304 22.624.08 6.272-6.224 6.304-16.36.08-22.632C291.928 20.144 243.536 0 192 0 86.128 0 0 86.128 0 192s86.128 192 192 192c105.864 0 192-86.128 192-192 0-8.832-7.168-16-16-16z"/>
        <path d="M214.624 192l36.688-36.688c6.248-6.248 6.248-16.376 0-22.624s-16.376-6.248-22.624 0L192 169.376l-36.688-36.688c-6.24-6.248-16.384-6.248-22.624 0-6.248 6.248-6.248 16.376 0 22.624L169.376 192l-36.688 36.688c-6.248 6.248-6.248 16.376 0 22.624C135.808 254.44 139.904 256 144 256s8.192-1.56 11.312-4.688L192 214.624l36.688 36.688C231.816 254.44 235.904 256 240 256s8.184-1.56 11.312-4.688c6.248-6.248 6.248-16.376 0-22.624L214.624 192z"/>
    </svg>
    <svg viewBox="0 0 512.011 512.011" fill="#d32d30" id="down-arrow" xmlns="http://www.w3.org/2000/svg">
        <path d="M505.755 123.592c-8.341-8.341-21.824-8.341-30.165 0L256.005 343.176 36.421 123.592c-8.341-8.341-21.824-8.341-30.165 0s-8.341 21.824 0 30.165l234.667 234.667a21.275 21.275 0 0015.083 6.251 21.275 21.275 0 0015.083-6.251l234.667-234.667c8.34-8.341 8.34-21.824-.001-30.165z"/>
    </svg>
    <svg viewBox="0 0 512.011 512.011" id="down-arrow-icon" xmlns="http://www.w3.org/2000/svg">
        <path d="M505.755 123.592c-8.341-8.341-21.824-8.341-30.165 0L256.005 343.176 36.421 123.592c-8.341-8.341-21.824-8.341-30.165 0s-8.341 21.824 0 30.165l234.667 234.667a21.275 21.275 0 0015.083 6.251 21.275 21.275 0 0015.083-6.251l234.667-234.667c8.34-8.341 8.34-21.824-.001-30.165z"/>
    </svg>
    <svg viewBox="0 0 512.011 512.011" fill="#fff" id="down-arrow-white" xmlns="http://www.w3.org/2000/svg">
        <path d="M505.755 123.592c-8.341-8.341-21.824-8.341-30.165 0L256.005 343.176 36.421 123.592c-8.341-8.341-21.824-8.341-30.165 0s-8.341 21.824 0 30.165l234.667 234.667a21.275 21.275 0 0015.083 6.251 21.275 21.275 0 0015.083-6.251l234.667-234.667c8.34-8.341 8.34-21.824-.001-30.165z"/>
    </svg>
    <svg aria-hidden="true" data-prefix="fas" data-icon="external-link-alt"
         class="aisvg-inline--fa aifa-external-link-alt aifa-w-16" viewBox="0 0 512 512" id="external-link"
         xmlns="http://www.w3.org/2000/svg">
        <path fill="currentColor"
              d="M432 320h-32a16 16 0 00-16 16v112H64V128h144a16 16 0 0016-16V80a16 16 0 00-16-16H48a48 48 0 00-48 48v352a48 48 0 0048 48h352a48 48 0 0048-48V336a16 16 0 00-16-16zM488 0H360c-21.37 0-32.05 25.91-17 41l35.73 35.73L135 320.37a24 24 0 000 34L157.67 377a24 24 0 0034 0l243.61-243.68L471 169c15 15 41 4.5 41-17V24a24 24 0 00-24-24z"/>
    </svg>
    <svg viewBox="0 0 488.85 488.85" id="eye" xmlns="http://www.w3.org/2000/svg">
        <path d="M244.425 98.725c-93.4 0-178.1 51.1-240.6 134.1-5.1 6.8-5.1 16.3 0 23.1 62.5 83.1 147.2 134.2 240.6 134.2s178.1-51.1 240.6-134.1c5.1-6.8 5.1-16.3 0-23.1-62.5-83.1-147.2-134.2-240.6-134.2zm6.7 248.3c-62 3.9-113.2-47.2-109.3-109.3 3.2-51.2 44.7-92.7 95.9-95.9 62-3.9 113.2 47.2 109.3 109.3-3.3 51.1-44.8 92.6-95.9 95.9zm-3.1-47.4c-33.4 2.1-61-25.4-58.8-58.8 1.7-27.6 24.1-49.9 51.7-51.7 33.4-2.1 61 25.4 58.8 58.8-1.8 27.7-24.2 50-51.7 51.7z"/>
    </svg>
    <svg viewBox="0 0 25 25" id="fire-outlined" xmlns="http://www.w3.org/2000/svg">
        <path d="M20.364 11.455a8.484 8.484 0 00-2.024-2.812l-.71-.652a.198.198 0 00-.318.08l-.317.91c-.198.572-.562 1.156-1.077 1.73a.153.153 0 01-.1.048.134.134 0 01-.105-.036.143.143 0 01-.049-.118c.09-1.47-.35-3.127-1.311-4.931-.796-1.5-1.902-2.669-3.284-3.484l-1.008-.593a.196.196 0 00-.293.178l.054 1.172c.036.8-.056 1.509-.276 2.097a6.962 6.962 0 01-1.148 1.99 7.218 7.218 0 01-1.16 1.125 8.608 8.608 0 00-2.448 2.966 8.49 8.49 0 00-.207 7.088 8.578 8.578 0 004.575 4.531 8.591 8.591 0 003.342.67c1.16 0 2.283-.226 3.342-.667a8.511 8.511 0 002.732-1.824 8.452 8.452 0 002.52-6.028 8.404 8.404 0 00-.73-3.44zm-2.957 8.284A6.921 6.921 0 0112.5 21.75a6.922 6.922 0 01-4.907-2.011 6.78 6.78 0 01-2.027-4.844c0-1.062.24-2.08.71-3.027a6.906 6.906 0 011.974-2.39c.529-.405 1.01-.87 1.43-1.387a8.651 8.651 0 001.421-2.466c.136-.368.235-.748.295-1.135a7.4 7.4 0 011.495 1.963c.815 1.528 1.191 2.888 1.118 4.045a1.807 1.807 0 003.144 1.323c.325-.364.606-.735.84-1.113.342.437.628.913.855 1.426.388.874.586 1.804.586 2.761 0 1.829-.72 3.55-2.027 4.844z"/>
    </svg>
    <svg fill="none" viewBox="0 0 30 30" id="gift" xmlns="http://www.w3.org/2000/svg">
        <path d="M4.688 26.191c0 .519.418.938.937.938h8.379V16.113H4.688v10.078zm11.308.938h8.379a.936.936 0 00.938-.938V16.113h-9.317V27.13zm9.785-18.047h-4.324a4.032 4.032 0 00.633-2.168 4.047 4.047 0 00-4.043-4.043c-1.213 0-2.306.54-3.047 1.389a4.039 4.039 0 00-3.047-1.389A4.047 4.047 0 007.91 6.914c0 .797.232 1.541.633 2.168H4.219a.936.936 0 00-.938.938v4.101h10.723V9.082h1.992v5.04H26.72V10.02a.937.937 0 00-.938-.938zm-11.777-.117h-2.05c-1.132 0-2.052-.92-2.052-2.05 0-1.132.92-2.052 2.051-2.052 1.131 0 2.05.92 2.05 2.051v2.05zm4.043 0h-2.05v-2.05c0-1.132.919-2.052 2.05-2.052 1.13 0 2.05.92 2.05 2.051 0 1.13-.92 2.05-2.05 2.05z"
              fill="#D32D30"/>
    </svg>
    <svg viewBox="0 0 480.002 480.002" id="global" xmlns="http://www.w3.org/2000/svg">
        <path d="M469.877 170.658c.066-.297.138-.584.199-.89l-.497-.099c-11.323-37.129-31.648-71.148-59.873-99.374C364.376 24.965 304.106 0 240 0S115.624 24.965 70.294 70.296C24.964 115.626.001 175.896.001 240.002s24.964 124.376 70.293 169.706S175.893 480.002 240 480.002c64.107 0 124.376-24.964 169.707-70.294 45.331-45.33 70.295-105.6 70.295-169.706-.001-23.836-3.459-47.14-10.125-69.344zM345.198 46.682c16.934 9.246 32.733 20.785 47 34.471-1.331 3.705-3.593 7.78-7.105 7.78l-.166-.003c-3.015-.109-6.51-1.256-10.21-2.469-5.606-1.838-11.961-3.924-19.181-3.341-7.066.567-13.123 3.55-18.466 6.181-5.009 2.466-9.334 4.599-12.433 3.824-2.947-.734-6.03-4.443-9.193-8.507-1.406-1.806-2.276-3.101-2.596-3.861.377-.629 1.144-1.622 1.552-2.15 3.982-5.154 10.708-11.751 17.213-18.131 4.693-4.604 9.477-9.307 13.585-13.794zm-70.33-23.935c-1.166 7.447-4.387 17.263-7.303 20.87-3.223 3.985-8.92 5.825-12.7 4.104-3.813-1.738-6.832-7.169-8.074-14.528-.814-4.824-2.419-9.183-4.113-13.159a222.511 222.511 0 0132.19 2.713zM84.437 84.438c26.093-26.093 57.588-44.82 91.961-55.146 4.151 13.648 9.206 26.434 14.136 38.517 3.774 9.253 8.053 19.739 7.087 29.229-.37 3.634-1.293 8.281-3.594 9.786-2.001 1.31-6.018 1.645-10.269 2-7.008.585-15.729 1.313-23.673 6.891-1.697 1.191-3.273 2.423-4.796 3.612-3.273 2.557-6.365 4.971-9.248 5.779-2.85.8-6.522.381-10.776-.104-2.443-.278-4.97-.565-7.644-.653-8.488-.312-27.836 3.766-36.26 14.768-4.163 5.437-5.362 12.009-3.376 18.506 1.471 4.815 4.623 8.174 7.514 10.826 13.503 12.38 32.035 21.148 50.842 24.058 2.69.416 5.294.734 7.813 1.043 13.791 1.688 20.652 2.915 25.868 12.314 1.299 2.341 2.345 5.112 3.453 8.046 1.275 3.379 2.594 6.873 4.515 10.395 5.704 10.463 15.32 16.592 25.086 16.048 7.29-.42 12.674-4.225 17-7.281 1.996-1.41 3.881-2.742 5.494-3.414 4.335-1.81 10.953-.203 17.695 4.291 4.624 3.083 10.606 8.183 12.845 14.97 1.685 5.106.519 11.017-2.75 13.78L233.97 287.8c-9.464 8.084-19.59 17.9-19.931 32.135-.108 4.502.821 8.825 1.64 12.64.574 2.669 1.533 7.137 1.018 8.304-.539.479-3.059 1.097-4.564 1.466-2.652.649-5.657 1.385-8.711 2.928-14.806 7.476-16.189 25.188-17.105 36.91-.664 8.503-3.818 15.659-7.033 15.953-2.615.251-6.308-4.27-7.591-9.281-.796-3.109-1.17-6.575-1.566-10.245-.57-5.287-1.217-11.28-3.34-17.165-2.736-7.583-7.499-13.834-11.701-19.349-4.127-5.418-8.026-10.535-9.285-15.858-.943-3.987-.563-8.778-.159-13.852.514-6.46 1.096-13.782-.953-21.235-2.912-10.594-10.128-18.164-16.495-24.845-4.181-4.386-8.13-8.529-10.476-13.005-2.828-5.396-2.477-11.052-2.07-17.601.385-6.207.822-13.243-1.649-20.482-2.468-7.229-8.302-11.405-12.623-14.499a247.241 247.241 0 01-35.267-30.698c-5.738-6.041-11.347-12.639-13.52-19.942-.568-1.909-.961-3.351-1.27-4.479-1.373-5.028-2.182-6.824-5.067-10.017 10.043-18.574 22.836-35.796 38.185-51.145zM240 460.002c-58.764 0-114.011-22.884-155.563-64.437-41.552-41.552-64.436-96.799-64.436-155.563 0-27.796 5.127-54.803 14.921-79.949 3.779 9.331 10.196 16.907 16.686 23.74a267.465 267.465 0 0038.187 33.229c1.943 1.392 4.881 3.495 5.277 4.656 1.191 3.49.924 7.797.615 12.782-.492 7.922-1.103 17.779 4.317 28.122 3.648 6.961 8.765 12.329 13.713 17.521 5.425 5.691 10.11 10.607 11.687 16.347 1.118 4.067.721 9.063.301 14.35-.484 6.092-1.033 12.996.633 20.04 2.237 9.46 7.87 16.853 12.839 23.375 3.653 4.795 7.103 9.323 8.796 14.016 1.309 3.628 1.775 7.949 2.268 12.523.454 4.209.924 8.561 2.076 13.06 3.176 12.408 13.243 24.335 26.682 24.334.691 0 1.393-.031 2.102-.096 13.963-1.274 23.601-14.423 25.154-34.313.6-7.686 1.422-18.212 6.18-20.613 1.016-.514 2.686-.923 4.454-1.355 4.083-1 9.673-2.369 14.111-6.914 8.131-8.327 5.878-18.82 4.232-26.48-.643-2.996-1.251-5.825-1.2-7.961.144-5.997 6.748-12.13 12.926-17.407l29.353-25.072c9.555-8.08 13.088-22.26 8.791-35.285-3.186-9.657-10.359-18.421-20.746-25.346-12.686-8.454-25.641-10.624-36.479-6.112-3.657 1.523-6.679 3.659-9.346 5.543-2.475 1.749-5.034 3.558-6.609 3.648-1.571.101-4.382-1.999-6.375-5.654-1.258-2.308-2.28-5.017-3.363-7.885-1.312-3.476-2.669-7.07-4.676-10.688-10.392-18.726-26.614-20.71-40.926-22.462-2.364-.289-4.808-.588-7.185-.956-15.001-2.319-29.72-9.257-40.382-19.032-1.345-1.233-1.79-1.795-1.935-2.037a1.632 1.632 0 01-.028-.13c1.321-3.073 13.3-7.396 19.91-7.204 1.869.062 3.894.293 6.038.537 5.538.631 11.814 1.347 18.437-.51 6.686-1.874 11.72-5.806 16.162-9.274 1.387-1.084 2.698-2.107 3.979-3.007 3.512-2.466 8.3-2.865 13.844-3.328 10.967-.915 29.323-2.447 32.097-29.691 1.471-14.451-4.039-27.957-8.466-38.809-4.624-11.335-9.365-23.287-13.236-35.832a220.856 220.856 0 0125.336-3.614c.479 1.097.961 2.181 1.441 3.246 1.952 4.334 3.796 8.427 4.479 12.467 2.418 14.329 9.344 24.771 19.5 29.399 3.636 1.657 7.559 2.451 11.516 2.451 9.261 0 18.703-4.353 25.031-12.181 5.092-6.301 9.533-18.546 11.323-29.432a217.353 217.353 0 0131.882 10.773c-2.766 2.83-5.762 5.77-8.715 8.665-6.988 6.854-14.213 13.94-19.035 20.183-1.909 2.471-4.793 6.204-5.609 11.369-1.385 8.771 4.074 15.784 6.697 19.154 4.079 5.241 10.244 13.161 20.136 15.629 2.136.532 4.211.764 6.222.763 7.597 0 14.283-3.292 19.885-6.051 4.1-2.019 7.973-3.926 11.231-4.188 3.211-.262 6.983.979 11.35 2.41 4.63 1.518 9.878 3.238 15.716 3.45 9.346.345 17.2-4.112 22.596-12.387 18.809 21.799 32.941 46.721 41.897 73.527-1.472 1.064-4.468 1.204-11.5 1.292-3.055.038-6.517.081-10.208.365-10.281.789-18.232-2.155-27.437-5.566-6.18-2.29-12.57-4.658-20.21-6.176-19.248-3.831-39.138 6.926-50.672 27.396-2.097 3.722-20.105 36.889-6.781 55.241 4.978 6.855 12.025 11.081 17.688 14.477 8.032 4.814 16.338 9.792 25.537 13.503 1.969.795 3.958 1.529 5.881 2.239 6.998 2.583 13.607 5.023 16.847 9.457 2.711 3.711 3.609 9.584 2.747 17.955-.655 6.353-3.022 12.81-5.529 19.645-5.621 15.33-12.617 34.409 3.783 53.149 4.677 5.344 10.292 9.414 16.503 12.088a224.93 224.93 0 01-9.78 10.444c-41.554 41.553-96.801 64.437-155.565 64.437zm178.692-91.606c-5.705-1.022-10.759-3.917-14.8-8.534-8.208-9.379-5.664-17.797-.056-33.092 2.82-7.688 5.735-15.64 6.646-24.479 1.393-13.516-.73-23.919-6.492-31.805-6.8-9.308-17.038-13.087-26.07-16.421-1.868-.689-3.632-1.341-5.325-2.023-7.745-3.125-15.027-7.489-22.736-12.109-4.527-2.715-9.209-5.521-11.788-9.073-3.17-4.366.728-20.731 8.021-33.673 5.479-9.721 16.454-20.158 29.35-17.598 6.08 1.208 11.461 3.202 17.159 5.313 10.455 3.874 21.27 7.889 35.921 6.754 3.05-.234 6.037-.272 8.925-.309 5.195-.065 11.221-.144 16.727-1.937a221.676 221.676 0 015.827 50.592c0 46.731-14.486 91.229-41.309 128.394z"/>
    </svg>
    <svg viewBox="0 -28 512 512" id="heart" xmlns="http://www.w3.org/2000/svg">
        <path d="M471.383 44.578C444.879 15.832 408.512 0 368.973 0c-29.555 0-56.621 9.344-80.45 27.77C276.5 37.07 265.605 48.45 256 61.73c-9.602-13.277-20.5-24.66-32.527-33.96C199.648 9.344 172.582 0 143.027 0c-39.539 0-75.91 15.832-102.414 44.578C14.426 72.988 0 111.801 0 153.871c0 43.3 16.137 82.938 50.781 124.742 30.992 37.395 75.535 75.356 127.117 119.313 17.614 15.012 37.579 32.027 58.309 50.152A30.023 30.023 0 00256 455.516c7.285 0 14.316-2.641 19.785-7.43 20.73-18.129 40.707-35.152 58.328-50.172 51.575-43.95 96.117-81.906 127.11-119.305C495.867 236.81 512 197.172 512 153.867c0-42.066-14.426-80.879-40.617-109.289zm0 0"/>
    </svg>
    <svg viewBox="0 0 22 24" id="hotel" xmlns="http://www.w3.org/2000/svg">
        <path d="M5.375.75L3.5 2.625 5.375 4.5 7.25 2.625 5.375.75zM7.25 2.625L9.125 4.5 11 2.625 9.125.75 7.25 2.625zm3.75 0L12.875 4.5l1.875-1.875L12.875.75 11 2.625zm3.75 0L16.625 4.5 18.5 2.625 16.625.75 14.75 2.625zM16.625 4.5H.687v18.75h20.625V4.5h-4.687zM2.562 6.375h16.875v15h-5.625v-4.688H8.189v4.688H2.561v-15zM4.438 8.25v1.875h1.875V8.25H4.438zm3.75 0v1.875h1.874V8.25H8.188zm3.75 0v1.875h1.874V8.25h-1.874zm3.75 0v1.875h1.874V8.25h-1.875zm-11.25 2.813v1.874h1.875v-1.874H4.438zm3.75 0v1.874h1.874v-1.874H8.188zm3.75 0v1.874h1.874v-1.874h-1.874zm3.75 0v1.874h1.874v-1.874h-1.875zm-11.25 2.812v1.875h1.875v-1.875H4.438zm3.75 0v1.875h1.874v-1.875H8.188zm3.75 0v1.875h1.874v-1.875h-1.874zm3.75 0v1.875h1.874v-1.875h-1.875zm-11.25 2.813v1.875h1.875v-1.875H4.438zm11.25 0v1.875h1.874v-1.875h-1.875zm-5.626 1.875h1.876v2.812h-1.876v-2.813z"/>
    </svg>
    <svg viewBox="0 0 512 512.001" fill="#d32d30" id="icon-airplane" xmlns="http://www.w3.org/2000/svg">
        <path d="M7.89 124.602l163.54 88.058 109.789-109.789-174.27-41.012c-39.789-9.37-81.758 7.192-104.43 41.2A15.057 15.057 0 000 111.39c0 5.507 3.031 10.59 7.89 13.21zm0 0M409.121 230.781L299.34 340.571l88.05 163.538A15.02 15.02 0 00400.603 512c2.968 0 5.859-.879 8.328-2.52 34.011-22.671 50.57-64.64 41.199-104.43zm0 0"/>
        <path d="M464.867 0h-.004c-24.726 0-47.972 9.629-65.453 27.113L105.187 321.332h-58.07C21.137 321.332 0 342.469 0 368.469a14.998 14.998 0 007.285 12.86l77.117 46.273 46.27 77.117A15.005 15.005 0 00143.535 512c26.328 0 47.133-21.379 47.133-47.133v-58.05l294.219-294.223C502.37 95.105 512 71.859 512 47.117 512 21.137 490.863 0 464.867 0zm0 0"/>
    </svg>
    <svg viewBox="0 0 524.235 524.235" fill="#d32d30" id="icon-bus" xmlns="http://www.w3.org/2000/svg">
        <path d="M406.263 9.583C359.967 3.232 311.047 0 262.127 0c-48.926 0-97.852 3.231-144.155 9.583-48.571 6.671-85.208 48.571-85.208 97.446v351.677c0 18.094 14.671 32.765 32.765 32.765h32.765c0 18.094 14.671 32.765 32.765 32.765h32.765c18.094 0 32.765-14.671 32.765-32.765h131.059c0 18.094 14.671 32.765 32.765 32.765h32.765c18.094 0 32.765-14.671 32.765-32.765h32.765c18.094 0 32.765-14.671 32.765-32.765V107.029c-.002-48.875-36.639-90.775-85.21-97.446zM126.899 74.505c29.789-4.096 77.448-8.975 135.218-8.975s105.429 4.88 135.218 8.975c16.574 2.272 28.605 15.95 28.605 32.525v142.856c-37.352 4.736-105.679 12.233-163.824 12.233s-126.471-7.497-163.824-12.233V107.029c.002-16.574 12.033-30.253 28.607-32.524zm36.925 318.671c-18.096 0-32.765-14.671-32.765-32.765 0-18.096 14.669-32.765 32.765-32.765s32.765 14.669 32.765 32.765c-.001 18.095-14.669 32.765-32.765 32.765zm196.588 0c-18.096 0-32.765-14.671-32.765-32.765 0-18.096 14.669-32.765 32.765-32.765s32.765 14.669 32.765 32.765c-.001 18.095-14.669 32.765-32.765 32.765z"/>
    </svg>
    <svg viewBox="0 0 512 512" fill="#d32d30" id="icon-calendar" xmlns="http://www.w3.org/2000/svg">
        <path d="M80 320h53.332c8.832 0 16-7.168 16-16v-53.332c0-8.832-7.168-16-16-16H80c-8.832 0-16 7.168-16 16V304c0 8.832 7.168 16 16 16zm0 0M80 448h53.332c8.832 0 16-7.168 16-16v-53.332c0-8.832-7.168-16-16-16H80c-8.832 0-16 7.168-16 16V432c0 8.832 7.168 16 16 16zm0 0M229.332 320h53.336c8.832 0 16-7.168 16-16v-53.332c0-8.832-7.168-16-16-16h-53.336c-8.832 0-16 7.168-16 16V304c0 8.832 7.168 16 16 16zm0 0M229.332 448h53.336c8.832 0 16-7.168 16-16v-53.332c0-8.832-7.168-16-16-16h-53.336c-8.832 0-16 7.168-16 16V432c0 8.832 7.168 16 16 16zm0 0M378.668 320H432c8.832 0 16-7.168 16-16v-53.332c0-8.832-7.168-16-16-16h-53.332c-8.832 0-16 7.168-16 16V304c0 8.832 7.168 16 16 16zm0 0"/>
        <path d="M448 64h-21.332V21.332C426.668 9.559 417.109 0 405.332 0H384c-11.777 0-21.332 9.559-21.332 21.332V64H149.332V21.332C149.332 9.559 139.777 0 128 0h-21.332C94.891 0 85.332 9.559 85.332 21.332V64H64C28.715 64 0 92.715 0 128v320c0 35.285 28.715 64 64 64h384c35.285 0 64-28.715 64-64V128c0-35.285-28.715-64-64-64zm21.332 384c0 11.754-9.578 21.332-21.332 21.332H64c-11.754 0-21.332-9.578-21.332-21.332V214.187h426.664zm0 0"/>
    </svg>
    <svg viewBox="0 0 405.333 405.333" fill="#d32d30" id="icon-city" xmlns="http://www.w3.org/2000/svg">
        <path d="M266.667 192V64l-64-64-64 64v42.667h-128v298.667h384V192h-128zM96 362.667H53.333V320H96v42.667zm0-85.334H53.333v-42.667H96v42.667zM96 192H53.333v-42.667H96V192zm128 170.667h-42.667V320H224v42.667zm0-85.334h-42.667v-42.667H224v42.667zM224 192h-42.667v-42.667H224V192zm0-85.333h-42.667V64H224v42.667zm128 256h-42.667V320H352v42.667zm0-85.334h-42.667v-42.667H352v42.667z"/>
    </svg>
    <svg viewBox="0 0 512 512" fill="#d32d30" id="icon-country" xmlns="http://www.w3.org/2000/svg">
        <path d="M439.463 61.867a14.849 14.849 0 00-14.933 0A118.954 118.954 0 01366.077 76.8a111.443 111.443 0 01-80.213-31.573 128.68 128.68 0 00-92.757-36.693 133.632 133.632 0 00-77.909 24.235V25.6c0-14.138-11.461-25.6-25.6-25.6-14.139 0-25.6 11.461-25.6 25.6v460.8c0 14.138 11.461 25.6 25.6 25.6 14.138 0 25.6-11.461 25.6-25.6V264.533a14.93 14.93 0 007.765-3.072 115.713 115.713 0 0170.144-22.528 111.616 111.616 0 0180.384 31.573 128.6 128.6 0 0092.587 36.693 133.374 133.374 0 0074.581-21.76 17.068 17.068 0 007.339-14.507V76.8a17.07 17.07 0 00-8.535-14.933z"/>
    </svg>
    <svg viewBox="0 0 512 512" fill="#d32d30" id="icon-location" xmlns="http://www.w3.org/2000/svg">
        <path d="M256 0C150.125 0 64 86.135 64 192c0 141.646 177.146 310 184.688 317.104C250.75 511.031 253.375 512 256 512s5.25-.969 7.313-2.896C270.854 502 448 333.646 448 192 448 86.135 361.875 0 256 0zm0 298.667c-58.813 0-106.667-47.854-106.667-106.667S197.188 85.333 256 85.333 362.667 133.188 362.667 192 314.813 298.667 256 298.667z"/>
    </svg>
    <svg viewBox="0 0 513.64 513.64" fill="#d32d30" id="icon-phone" xmlns="http://www.w3.org/2000/svg">
        <path d="M499.66 376.96l-71.68-71.68c-25.6-25.6-69.12-15.359-79.36 17.92-7.68 23.041-33.28 35.841-56.32 30.72-51.2-12.8-120.32-79.36-133.12-133.12-7.68-23.041 7.68-48.641 30.72-56.32 33.28-10.24 43.52-53.76 17.92-79.36l-71.68-71.68c-20.48-17.92-51.2-17.92-69.12 0L18.38 62.08c-48.64 51.2 5.12 186.88 125.44 307.2s256 176.641 307.2 125.44l48.64-48.64c17.921-20.48 17.921-51.2 0-69.12z"/>
    </svg>
    <svg viewBox="0 0 52 48" id="icon-play" xmlns="http://www.w3.org/2000/svg">
        <path d="M26 .667C11.756.667.167 11.134.167 24 .167 36.866 11.756 47.333 26 47.333c14.245 0 25.833-10.467 25.833-23.333C51.833 11.134 40.245.667 26 .667zm0 42C14.605 42.666 5.333 34.291 5.333 24 5.333 13.707 14.605 5.333 26 5.333c11.395 0 20.667 8.374 20.667 18.667 0 10.292-9.272 18.666-20.667 18.666z"/>
        <path d="M18.25 35.667L38.916 24 18.25 12.334v23.333z"/>
    </svg>
    <svg viewBox="0 0 512 512" fill="#a0a0a0" id="icon-refresh" xmlns="http://www.w3.org/2000/svg">
        <path d="M463.702 162.655L442.491 14.164c-1.744-12.174-16.707-17.233-25.459-8.481l-30.894 30.894C346.411 12.612 301.309 0 254.932 0 115.464 0 3.491 109.16.005 248.511c-.19 7.617 5.347 14.15 12.876 15.234l59.941 8.569c8.936 1.304 17.249-5.712 17.125-15.058C88.704 165.286 162.986 90 254.932 90c22.265 0 44.267 4.526 64.6 13.183l-29.78 29.78c-8.697 8.697-3.761 23.706 8.481 25.459l148.491 21.211c9.784 1.475 18.381-7.034 16.978-16.978zM499.117 249.412l-59.897-8.555c-7.738-.98-17.124 5.651-17.124 16.143 0 90.981-74.019 165-165 165a165.207 165.207 0 01-64.306-13.052l28.828-28.828c8.697-8.697 3.761-23.706-8.481-25.459L64.646 333.435c-9.753-1.393-18.39 6.971-16.978 16.978l21.21 148.492c1.746 12.187 16.696 17.212 25.459 8.481l31.641-31.626C165.514 499.505 210.587 512 257.096 512c138.794 0 250.752-108.618 254.897-247.28.22-7.632-5.317-14.224-12.876-15.308z"/>
    </svg>
    <svg fill="none" viewBox="0 0 20 20" id="icon-sale" xmlns="http://www.w3.org/2000/svg">
        <path d="M17.5 10l2.5 2.5-3.125 1.25.625 3.75-3.75-.625L12.5 20 10 17.5 7.5 20l-1.25-3.125-3.75.625.625-3.75L0 12.5 2.5 10 0 7.5l3.125-1.25L2.5 2.5l3.75.625L7.5 0 10 2.5 12.5 0l1.25 3.125L17.5 2.5l-.625 3.75L20 7.5 17.5 10zM6.875 5c-.52 0-.964.244-1.328.732C5.182 6.221 5 6.81 5 7.5s.182 1.28.547 1.768c.364.488.807.732 1.328.732.52 0 .964-.244 1.328-.732.365-.489.547-1.078.547-1.768s-.182-1.28-.547-1.768C7.84 5.244 7.396 5 6.875 5zm6.25 0H12.5c-.052 0-.1.01-.146.03-.046.019-.082.035-.108.048a.4.4 0 00-.107.108 2.527 2.527 0 00-.088.117 7.85 7.85 0 00-.176.322l-5.527 8.75c-.091.156-.072.3.058.43a.64.64 0 00.469.195H7.5a.67.67 0 00.127-.01.309.309 0 00.107-.049.587.587 0 00.088-.068 1.576 1.576 0 00.146-.225c.014-.026.04-.071.079-.136.039-.065.065-.111.078-.137l5.527-8.75c.091-.156.072-.3-.058-.43A.64.64 0 0013.125 5zm0 5c-.52 0-.963.244-1.328.732-.365.489-.547 1.078-.547 1.768s.182 1.28.547 1.768c.364.488.807.732 1.328.732.52 0 .963-.244 1.328-.732.365-.489.547-1.078.547-1.768s-.182-1.28-.547-1.768c-.364-.488-.807-.732-1.328-.732zm0 3.75c-.17 0-.316-.124-.44-.371a1.968 1.968 0 01-.185-.889c0-.345.062-.638.185-.879.124-.24.27-.361.44-.361.17 0 .316.12.44.361.123.241.185.534.185.88 0 .344-.062.64-.185.888-.124.247-.27.371-.44.371zm-6.25-5c-.17 0-.316-.124-.44-.371a1.968 1.968 0 01-.185-.889c0-.345.062-.638.186-.879.123-.24.27-.361.439-.361.17 0 .316.12.44.361.123.241.185.534.185.88 0 .344-.062.64-.186.888-.123.247-.27.371-.439.371z"
              fill="#D32D30"/>
    </svg>
    <svg viewBox="0 0 30 30" id="icon-sort-down" xmlns="http://www.w3.org/2000/svg">
        <g clip-path="url(#azclip0)">
            <path d="M14.063 5.625h3.75a.937.937 0 00.937-.938V2.813a.938.938 0 00-.938-.937h-3.75a.937.937 0 00-.937.938v1.874a.938.938 0 00.938.938zm0 7.5h7.5a.937.937 0 00.937-.938v-1.874a.938.938 0 00-.938-.938h-7.5a.937.937 0 00-.937.938v1.874a.938.938 0 00.938.938zm15 11.25h-15a.938.938 0 00-.938.938v1.875a.938.938 0 00.938.937h15a.937.937 0 00.937-.938v-1.875a.938.938 0 00-.938-.937zm-15-3.75h11.25a.937.937 0 00.937-.938v-1.875a.938.938 0 00-.938-.937h-11.25a.938.938 0 00-.937.938v1.875a.938.938 0 00.938.937zm-3.75 0H7.5V2.812a.938.938 0 00-.937-.937H4.688a.937.937 0 00-.938.938v17.812H.938c-.832 0-1.253 1.01-.662 1.6l4.687 5.625a.937.937 0 001.326 0l4.687-5.625c.587-.589.17-1.6-.664-1.6z"/>
        </g>
        <defs>
            <clipPath id="azclip0">
                <path fill="#fff" d="M0 0h30v30H0z"/>
            </clipPath>
        </defs>
    </svg>
    <svg viewBox="0 0 30 30" id="icon-sort-up" xmlns="http://www.w3.org/2000/svg">
        <g clip-path="url(#baclip0)">
            <path d="M17.813 24.375h-3.75a.938.938 0 00-.938.938v1.875a.938.938 0 00.938.937h3.75a.937.937 0 00.937-.938v-1.875a.938.938 0 00-.938-.937zm-7.5-3.75H7.5V2.812a.938.938 0 00-.937-.937H4.688a.937.937 0 00-.938.938v17.812H.938c-.832 0-1.253 1.01-.662 1.6l4.687 5.625a.937.937 0 001.326 0l4.687-5.625c.587-.589.17-1.6-.664-1.6zm15-11.25h-11.25a.937.937 0 00-.938.938v1.874a.938.938 0 00.938.938h11.25a.937.937 0 00.937-.938v-1.874a.938.938 0 00-.938-.938zm-3.75 7.5h-7.5a.938.938 0 00-.938.938v1.875a.938.938 0 00.938.937h7.5a.937.937 0 00.937-.938v-1.875a.938.938 0 00-.938-.937zm7.5-15h-15a.937.937 0 00-.938.938v1.874a.938.938 0 00.938.938h15A.937.937 0 0030 4.687V2.813a.938.938 0 00-.938-.937z"/>
        </g>
        <defs>
            <clipPath id="baclip0">
                <path fill="#fff" d="M0 0h30v30H0z"/>
            </clipPath>
        </defs>
    </svg>
    <svg fill="none" viewBox="0 0 23 21" id="icon-star" xmlns="http://www.w3.org/2000/svg">
        <path d="M11.5 0l2.582 7.946h8.355l-6.76 4.911 2.582 7.947-6.759-4.911-6.76 4.91 2.582-7.946-6.76-4.91h8.356L11.5 0z"
              fill="#FB9B18"/>
    </svg>
    <svg viewBox="0 0 512 512" fill="#d32d30" id="icon-time" xmlns="http://www.w3.org/2000/svg">
        <path d="M256 0C114.836 0 0 114.836 0 256s114.836 256 256 256 256-114.836 256-256S397.164 0 256 0zm121.75 388.414a21.277 21.277 0 01-15.082 6.254 21.27 21.27 0 01-15.082-6.254L240.918 281.75a21.237 21.237 0 01-6.25-15.082V128c0-11.797 9.555-21.332 21.332-21.332s21.332 9.535 21.332 21.332v129.836L377.75 358.25c8.34 8.344 8.34 21.824 0 30.164zm0 0"/>
    </svg>
    <svg viewBox="0 0 405.333 405.333" fill="#d32d30" id="icon-train" xmlns="http://www.w3.org/2000/svg">
        <path d="M202.667 0C108.373 0 32 10.667 32 85.333V288c0 41.28 33.493 74.667 74.667 74.667l-32 32v10.667h256v-10.667l-32-32c41.28 0 74.667-33.387 74.667-74.667V85.333C373.333 10.667 296.96 0 202.667 0zm-96 320c-17.707 0-32-14.293-32-32s14.293-32 32-32 32 14.293 32 32-14.294 32-32 32zm74.666-128H74.667V85.333h106.667V192zm117.334 128c-17.707 0-32-14.293-32-32s14.293-32 32-32 32 14.293 32 32-14.294 32-32 32zm32-128H224V85.333h106.667V192z"/>
    </svg>
    <svg viewBox="0 0 3 9" id="info" xmlns="http://www.w3.org/2000/svg">
        <path d="M2.372 3.176l-2.147.27-.077.356.422.077c.276.066.33.165.27.44L.148 7.57c-.182.841.099 1.237.758 1.237.51 0 1.104-.236 1.373-.56l.083-.39c-.188.164-.462.23-.644.23-.257 0-.351-.181-.285-.5l.939-4.41zm.066-1.957a.938.938 0 11-1.875 0 .938.938 0 011.875 0z"/>
    </svg>
    <svg viewBox="0 0 291.319 291.319" fill="#d405c6" id="instagram" xmlns="http://www.w3.org/2000/svg">
        <path d="M145.659 0c80.44 0 145.66 65.219 145.66 145.66S226.1 291.319 145.66 291.319 0 226.1 0 145.66 65.21 0 145.659 0z"/>
        <path d="M195.93 63.708H95.38c-17.47 0-31.672 14.211-31.672 31.672v100.56c0 17.47 14.211 31.672 31.672 31.672h100.56c17.47 0 31.672-14.211 31.672-31.672V95.38c-.001-17.461-14.212-31.672-31.682-31.672zm9.978 18.326l3.587-.009v27.202l-27.402.091-.091-27.202 23.906-.082zm-60.248 36.205c22.732 0 27.42 21.339 27.42 27.429 0 15.103-12.308 27.411-27.42 27.411-15.121 0-27.42-12.308-27.42-27.411-.01-6.09 4.688-27.429 27.42-27.429zm63.99 75.716c0 8.658-7.037 15.704-15.713 15.704H97.073c-8.667 0-15.713-7.037-15.713-15.704v-66.539h22.759c-2.112 5.198-3.305 12.299-3.305 18.253 0 24.708 20.101 44.818 44.818 44.818s44.808-20.11 44.808-44.818c0-5.954-1.193-13.055-3.296-18.253h22.486v66.539h.02z"
              fill="#fff"/>
    </svg>
    <svg viewBox="0 0 15 14" id="like" xmlns="http://www.w3.org/2000/svg">
        <path d="M14.2 8.06a1.75 1.75 0 01-.38 1.177c.1.32.1.655 0 1.003a1.66 1.66 0 01-.477.807c.053.64-.092 1.158-.433 1.554-.377.434-.958.659-1.742.669h-1.14c-.389 0-.813-.045-1.273-.133a11.24 11.24 0 01-1.074-.249 47.72 47.72 0 01-1.065-.339c-.725-.246-1.19-.371-1.396-.378a.593.593 0 01-.398-.168.501.501 0 01-.168-.381V6.12a.51.51 0 01.159-.374.583.583 0 01.38-.176c.141-.011.365-.18.672-.507.306-.325.604-.673.893-1.037.4-.499.698-.842.892-1.03a1.31 1.31 0 00.275-.413c.076-.172.128-.31.154-.416.027-.106.066-.28.12-.518.04-.224.078-.4.11-.524.033-.127.09-.275.172-.448a1.51 1.51 0 01.301-.428.551.551 0 01.398-.162c.271 0 .514.03.73.09.214.06.391.135.53.223.138.089.256.204.354.348.097.142.167.272.212.385.044.115.08.258.106.43a3.526 3.526 0 01.048.72c0 .219-.027.436-.084.654a3.415 3.415 0 01-.167.514 6.97 6.97 0 01-.332.635 1.478 1.478 0 00-.168.395h2.449c.46 0 .857.164 1.193.489.335.327.503.713.503 1.16 0 .491-.162.917-.486 1.277.089.253.133.471.132.653zM3.92 5.743a.522.522 0 01.168.387v5.492c0 .15-.056.278-.168.386a.552.552 0 01-.398.163H.977a.552.552 0 01-.398-.163.519.519 0 01-.168-.386V6.13a.52.52 0 01.168-.387.554.554 0 01.398-.164h2.545a.55.55 0 01.398.164zm-1.246 4.78a.521.521 0 00-.168-.386.555.555 0 00-.398-.163.55.55 0 00-.402.163.528.528 0 00-.164.386.52.52 0 00.164.39c.109.107.243.16.402.16a.555.555 0 00.398-.16.514.514 0 00.168-.39z"/>
        <path d="M14.2 8.06a1.75 1.75 0 01-.38 1.177c.1.32.1.655 0 1.003a1.66 1.66 0 01-.477.807c.053.64-.092 1.158-.433 1.554-.377.434-.958.659-1.742.669h-1.14c-.389 0-.813-.045-1.273-.133a11.24 11.24 0 01-1.074-.249 47.72 47.72 0 01-1.065-.339c-.725-.246-1.19-.371-1.396-.378a.593.593 0 01-.398-.168.501.501 0 01-.168-.381V6.12a.51.51 0 01.159-.374.583.583 0 01.38-.176c.141-.011.365-.18.672-.507.306-.325.604-.673.893-1.037.4-.499.698-.842.892-1.03a1.31 1.31 0 00.275-.413c.076-.172.128-.31.154-.416.027-.106.066-.28.12-.518.04-.224.078-.4.11-.524.033-.127.09-.275.172-.448a1.51 1.51 0 01.301-.428.551.551 0 01.398-.162c.271 0 .514.03.73.09.214.06.391.135.53.223.138.089.256.204.354.348.097.142.167.272.212.385.044.115.08.258.106.43a3.526 3.526 0 01.048.72c0 .219-.027.436-.084.654a3.415 3.415 0 01-.167.514 6.97 6.97 0 01-.332.635 1.478 1.478 0 00-.168.395h2.449c.46 0 .857.164 1.193.489.335.327.503.713.503 1.16 0 .491-.162.917-.486 1.277.089.253.133.471.132.653zM3.92 5.743a.522.522 0 01.168.387v5.492c0 .15-.056.278-.168.386a.552.552 0 01-.398.163H.977a.552.552 0 01-.398-.163.519.519 0 01-.168-.386V6.13a.52.52 0 01.168-.387.554.554 0 01.398-.164h2.545a.55.55 0 01.398.164zm-1.246 4.78a.521.521 0 00-.168-.386.555.555 0 00-.398-.163.55.55 0 00-.402.163.528.528 0 00-.164.386.52.52 0 00.164.39c.109.107.243.16.402.16a.555.555 0 00.398-.16.514.514 0 00.168-.39z"/>
    </svg>
    <svg aria-hidden="true" data-prefix="fas" data-icon="link" class="bhsvg-inline--fa bhfa-link bhfa-w-16"
         viewBox="0 0 512 512" id="link-solid" xmlns="http://www.w3.org/2000/svg">
        <path fill="currentColor"
              d="M326.612 185.391c59.747 59.809 58.927 155.698.36 214.59-.11.12-.24.25-.36.37l-67.2 67.2c-59.27 59.27-155.699 59.262-214.96 0-59.27-59.26-59.27-155.7 0-214.96l37.106-37.106c9.84-9.84 26.786-3.3 27.294 10.606.648 17.722 3.826 35.527 9.69 52.721 1.986 5.822.567 12.262-3.783 16.612l-13.087 13.087c-28.026 28.026-28.905 73.66-1.155 101.96 28.024 28.579 74.086 28.749 102.325.51l67.2-67.19c28.191-28.191 28.073-73.757 0-101.83-3.701-3.694-7.429-6.564-10.341-8.569a16.037 16.037 0 01-6.947-12.606c-.396-10.567 3.348-21.456 11.698-29.806l21.054-21.055c5.521-5.521 14.182-6.199 20.584-1.731a152.482 152.482 0 0120.522 17.197zM467.547 44.449c-59.261-59.262-155.69-59.27-214.96 0l-67.2 67.2c-.12.12-.25.25-.36.37-58.566 58.892-59.387 154.781.36 214.59a152.454 152.454 0 0020.521 17.196c6.402 4.468 15.064 3.789 20.584-1.731l21.054-21.055c8.35-8.35 12.094-19.239 11.698-29.806a16.037 16.037 0 00-6.947-12.606c-2.912-2.005-6.64-4.875-10.341-8.569-28.073-28.073-28.191-73.639 0-101.83l67.2-67.19c28.239-28.239 74.3-28.069 102.325.51 27.75 28.3 26.872 73.934-1.155 101.96l-13.087 13.087c-4.35 4.35-5.769 10.79-3.783 16.612 5.864 17.194 9.042 34.999 9.69 52.721.509 13.906 17.454 20.446 27.294 10.606l37.106-37.106c59.271-59.259 59.271-155.699.001-214.959z"/>
    </svg>
    <svg viewBox="0 0 146.8 120.41" id="mastercard-logo" xmlns="http://www.w3.org/2000/svg">
        <g data-name="Layer 2">
            <g data-name="Layer 1">
                <path fill="none" d="M0 0h146.8v120.41H0z"/>
                <path fill="#231f20"
                      d="M36.35 105.26v-6a3.56 3.56 0 00-3.76-3.8 3.7 3.7 0 00-3.36 1.7 3.51 3.51 0 00-3.16-1.7 3.16 3.16 0 00-2.8 1.42V95.7h-2.08v9.56h2.1V100a2.24 2.24 0 012.34-2.54c1.38 0 2.08.9 2.08 2.52v5.32h2.1V100a2.25 2.25 0 012.34-2.54c1.42 0 2.1.9 2.1 2.52v5.32zm31.07-9.56H64v-2.9h-2.1v2.9H60v1.9h1.94v4.4c0 2.22.86 3.54 3.32 3.54a4.88 4.88 0 002.6-.74l-.6-1.78a3.84 3.84 0 01-1.84.54c-1 0-1.38-.64-1.38-1.6V97.6h3.4zm17.74-.24a2.82 2.82 0 00-2.52 1.4V95.7h-2.06v9.56h2.08V99.9c0-1.58.68-2.46 2-2.46a3.39 3.39 0 011.3.24l.64-2a4.45 4.45 0 00-1.48-.26zm-26.82 1a7.15 7.15 0 00-3.9-1c-2.42 0-4 1.16-4 3.06 0 1.56 1.16 2.52 3.3 2.82l1 .14c1.14.16 1.68.46 1.68 1 0 .74-.76 1.16-2.18 1.16a5.09 5.09 0 01-3.18-1l-1 1.62a6.9 6.9 0 004.14 1.24c2.76 0 4.36-1.3 4.36-3.12s-1.26-2.56-3.34-2.86l-1-.14c-.9-.12-1.62-.3-1.62-.94s.68-1.12 1.82-1.12a6.16 6.16 0 013 .82zm55.71-1a2.82 2.82 0 00-2.52 1.4V95.7h-2.06v9.56h2.08V99.9c0-1.58.68-2.46 2-2.46a3.39 3.39 0 011.3.24l.64-2a4.45 4.45 0 00-1.48-.26zm-26.8 5a4.83 4.83 0 005.1 5 5 5 0 003.44-1.14l-1-1.68a4.2 4.2 0 01-2.5.86 3.07 3.07 0 010-6.12 4.2 4.2 0 012.5.86l1-1.68a5 5 0 00-3.44-1.14 4.83 4.83 0 00-5.1 5zm19.48 0V95.7h-2.08v1.16a3.63 3.63 0 00-3-1.4 5 5 0 000 10 3.63 3.63 0 003-1.4v1.16h2.08zm-7.74 0a2.89 2.89 0 112.9 3.06 2.87 2.87 0 01-2.9-3.06zm-25.1-5a5 5 0 00.14 10 5.81 5.81 0 003.97-1.3l-1-1.54a4.55 4.55 0 01-2.78 1 2.65 2.65 0 01-2.86-2.34h7.1v-.8c0-3-1.86-5-4.54-5zm0 1.86a2.37 2.37 0 012.42 2.32h-5a2.46 2.46 0 012.54-2.32zm52.11 3.16v-8.62h-2v5a3.63 3.63 0 00-3-1.4 5 5 0 000 10 3.63 3.63 0 003-1.4v1.16h2zm3.47 3.39a1 1 0 01.38.07 1 1 0 01.31.2 1 1 0 01.21.3.93.93 0 010 .74 1 1 0 01-.21.3 1 1 0 01-.31.2.94.94 0 01-.38.08 1 1 0 01-.9-.58.94.94 0 010-.74 1 1 0 01.21-.3 1 1 0 01.31-.2 1 1 0 01.41-.07zm0 1.69a.71.71 0 00.29-.06.75.75 0 00.23-.16.74.74 0 000-1 .74.74 0 00-.23-.16.72.72 0 00-.29-.06.75.75 0 00-.29.06.73.73 0 00-.24.16.74.74 0 000 1 .74.74 0 00.24.16.74.74 0 00.32.06zm.06-1.19a.4.4 0 01.26.08.25.25 0 01.09.21.24.24 0 01-.07.18.35.35 0 01-.21.09l.29.33h-.23l-.27-.33h-.09v.33h-.19v-.88zm-.22.17v.24h.22a.21.21 0 00.12 0 .1.1 0 000-.09.1.1 0 000-.09.21.21 0 00-.12 0zm-11-4.06a2.89 2.89 0 112.9 3.06 2.87 2.87 0 01-2.9-3.06zm-70.23 0V95.7H46v1.16a3.63 3.63 0 00-3-1.4 5 5 0 000 10 3.63 3.63 0 003-1.4v1.16h2.08zm-7.74 0a2.89 2.89 0 112.9 3.06 2.87 2.87 0 01-2.92-3.06z"/>
                <g data-name="&lt;Group>">
                    <path fill="#ff5f00" d="M57.65 22.85h31.5v56.61h-31.5z"/>
                    <path data-name="&lt;Path>" fill="#eb001b"
                          d="M59.65 51.16A35.94 35.94 0 0173.4 22.85a36 36 0 100 56.61 35.94 35.94 0 01-13.75-28.3z"/>
                    <path fill="#f79e1b"
                          d="M131.65 51.16a36 36 0 01-58.25 28.3 36 36 0 000-56.61 36 36 0 0158.25 28.3zM128.21 73.46V72.3h.47v-.24h-1.19v.24h.51v1.16zm2.31 0v-1.4h-.36l-.42 1-.42-1H129v1.4h.26v-1.05l.39.91h.27l.39-.91v1.06z"/>
                </g>
            </g>
        </g>
    </svg>
    <svg viewBox="0 0 93.708 93.708" id="metro" xmlns="http://www.w3.org/2000/svg">
        <path d="M77.32 8.732L47.379 51.248 16.795 9.721 0 79.253h22.728l4.164-22.238 20.117 27.961 20.012-27.348 4.026 21.748h22.661z"/>
    </svg>
    <svg viewBox="0 0 400 120" id="mir-logo" xmlns="http://www.w3.org/2000/svg">
        <g fill="none" fill-rule="evenodd">
            <path d="M63.55 13.016c3.145-.018 12.491-.86 16.45 12.5 2.667 9 6.915 23.743 12.744 44.228h2.373c6.252-21.597 10.546-36.34 12.883-44.227 4-13.5 14-12.5 18-12.5h30.861v96h-31.454V52.441h-2.11l-17.534 56.574H82.098L64.564 52.4h-2.11v56.616H31v-96zm138.479 0v56.617h2.509l21.329-46.555c4.14-9.265 12.964-10.061 12.964-10.061h30.439v96h-32.111V52.4h-2.51l-20.91 46.556c-4.14 9.222-13.383 10.06-13.383 10.06h-30.439v-96h32.112zm178.232 45.62c-4.48 12.693-18.546 21.784-34.12 21.784h-33.674v28.597H281.93v-50.38z"
                  fill="#0F754E"/>
            <path d="M347.614 13.017H280.33c1.602 21.373 20.007 39.67 39.061 39.67h62.992c3.635-17.764-8.879-39.67-34.768-39.67z"
                  fill="#1F5CD7"/>
        </g>
    </svg>
    <svg fill="#ee8208" viewBox="0 0 97.75 97.75" id="odnoklassniki" xmlns="http://www.w3.org/2000/svg">
        <path d="M48.921 40.507a8.367 8.367 0 008.367-8.443c-.017-4.679-3.742-8.402-8.411-8.406a8.398 8.398 0 00-8.432 8.508c.035 4.66 3.794 8.358 8.476 8.341z"/>
        <path d="M48.875 0C21.882 0 0 21.883 0 48.875S21.882 97.75 48.875 97.75 97.75 75.867 97.75 48.875 75.868 0 48.875 0zm.07 14.863c9.52.026 17.161 7.813 17.112 17.438-.048 9.403-7.814 17.024-17.318 16.992-9.407-.032-17.122-7.831-17.066-17.253.053-9.525 7.772-17.203 17.272-17.177zm19.282 41.194c-2.105 2.161-4.639 3.725-7.453 4.816-2.66 1.031-5.575 1.55-8.461 1.896.437.474.642.707.914.979 3.916 3.937 7.851 7.854 11.754 11.802 1.33 1.346 1.607 3.014.875 4.577-.799 1.71-2.592 2.834-4.351 2.713-1.114-.077-1.983-.63-2.754-1.407-2.956-2.974-5.968-5.895-8.862-8.925-.845-.882-1.249-.714-1.994.052a589.856 589.856 0 01-9.034 9.072c-1.365 1.346-2.989 1.59-4.573.82-1.683-.814-2.753-2.533-2.671-4.262.058-1.166.632-2.06 1.434-2.858 3.877-3.869 7.742-7.75 11.608-11.628.257-.257.495-.53.868-.93-5.273-.551-10.028-1.849-14.099-5.032-.506-.396-1.027-.778-1.487-1.222-1.783-1.711-1.962-3.672-.553-5.69 1.207-1.728 3.231-2.19 5.336-1.197.408.191.796.433 1.168.689 7.586 5.213 18.008 5.356 25.624.233.754-.576 1.561-1.05 2.496-1.289 1.816-.468 3.512.201 4.486 1.791 1.115 1.817 1.102 3.589-.271 5z"/>
    </svg>
    <svg viewBox="0 0 469.17 469.17" id="passport" xmlns="http://www.w3.org/2000/svg">
        <path d="M154.585 134.152c-53.019 0-96 42.981-96 96s42.981 96 96 96 96-42.981 96-96-42.981-96-96-96zm71.047 60h-34.598c-3.309-16.58-8.477-29.981-13.754-40.32 21.142 6.309 38.497 20.969 48.352 40.32zm-47.047 36c0 7.142-.535 13.703-1.27 20h-45.457c-.738-6.297-1.274-12.859-1.274-20 0-7.145.527-13.705 1.258-20h45.489c.727 6.295 1.254 12.856 1.254 20zm-26.328-79.766c.789-.023 1.531-.234 2.328-.234.805 0 1.55.215 2.351.238 6.004 9.211 13.305 23.782 17.726 43.762H134.51c4.442-20.049 11.77-34.613 17.747-43.766zm-20.367 3.446c-5.258 10.317-10.43 23.733-13.742 40.32h-34.61a79.865 79.865 0 0148.352-40.32zm-57.305 76.32c0-6.946 1.168-13.57 2.84-20h38.293c-.668 6.336-1.133 12.926-1.133 20 0 7.078.477 13.66 1.156 20H77.425c-1.672-6.43-2.84-13.054-2.84-20zm8.953 36h34.649c3.344 16.617 8.519 30.133 13.68 40.313-21.13-6.313-38.477-20.969-48.329-40.313zm73.371 43.766c-.789.024-1.527.234-2.324.234s-1.535-.211-2.328-.234c-5.734-8.82-13.203-23.424-17.726-43.766h40.11c-4.517 20.329-11.978 34.926-17.732 43.766zm20.402-3.453c5.168-10.19 10.34-23.695 13.676-40.313h34.645c-9.852 19.342-27.196 33.997-48.321 40.313zm16.122-56.313c.676-6.34 1.152-12.922 1.152-20 0-7.074-.461-13.664-1.129-20h38.289c1.672 6.43 2.84 13.055 2.84 20 0 6.946-1.168 13.57-2.84 20h-38.312zM74.585 374.152h160v16h-160zM337.688 289.807l8.284-30.908 15.455 4.142-8.285 30.909zM300.418 428.866l28.985-108.178 15.454 4.141-28.985 108.178z"/>
        <path d="M434.858 50.792L249.402 1.098A32.049 32.049 0 00241.101 0c-14.129.001-27.058 9.43-30.89 23.726l-16.726 62.426h-166.9c-8.836 0-16 7.163-16 16v320c0 8.837 7.164 16 16 16h184.801l111.664 29.92a32.038 32.038 0 008.301 1.098c14.129 0 27.058-9.43 30.89-23.726l95.246-355.461c4.575-17.07-5.558-34.617-22.629-39.191zM26.585 422.152v-320h240c8.824 0 16 7.178 16 16v288c0 8.822-7.176 16-16 16h-240zm415.449-336.31l-95.246 355.461c-1.875 6.988-8.222 11.868-15.438 11.868-1.39 0-2.789-.186-4.16-.554l-55.793-14.95c15.37-2.335 27.187-15.49 27.187-31.514V279.309l8.195 2.196 8.285-30.91-15.457-4.141-1.023 3.824V123.129l16.328 4.376 18.922 61.862 13.246 3.55-1.254-57.129 23.402 6.271 10.285 18.137 8.832 2.366-1.519-25.253 13.942-21.111-8.832-2.366-17.973 10.565c-5.824-1.559-14.703-3.939-23.406-6.271l29.652-48.846-13.246-3.55-47.317 44.114c-9.305-2.493-19.457-5.215-24.957-6.687-5.39-10.074-15.886-17.004-28.105-17.004h-56.539l15.617-58.284c1.875-6.987 8.223-11.867 15.438-11.868 1.39 0 2.789.186 4.16.554l185.457 49.694a15.893 15.893 0 019.715 7.455 15.889 15.889 0 011.602 12.138z"/>
        <path d="M337.715 232.073l4.093-15.467 15.204 4.023-4.093 15.467zM368.082 240.14l4.093-15.466 15.204 4.023-4.093 15.467zM307.35 224.03l4.092-15.467 15.204 4.023-4.092 15.467z"/>
    </svg>
    <svg viewBox="0 0 511 512" id="payment" xmlns="http://www.w3.org/2000/svg">
        <path d="M235.793 347.266a10.013 10.013 0 000-14.149c-3.906-3.898-10.234-3.898-14.145 0-3.898 3.91-3.898 10.238 0 14.149 3.91 3.898 10.239 3.898 14.145 0zm0 0M188.45 109.969c0 60.636 49.331 109.972 109.968 109.972s109.969-49.336 109.969-109.972S359.055 0 298.418 0 188.449 49.332 188.449 109.969zm199.945 0c0 49.613-40.364 89.976-89.977 89.976s-89.977-40.363-89.977-89.976c0-49.61 40.364-89.973 89.977-89.973s89.977 40.363 89.977 89.973zm0 0"/>
        <path d="M115.652 509.043c3.875 3.906 10.184 3.95 14.11.082l48.468-47.75c8.235-8.234 10.739-20.426 7.118-31.023l10.425-10.055a29.814 29.814 0 0120.817-8.41h132.902c23.578 0 45.863-9.055 62.758-25.496.695-.676-5.277 6.359 90.668-108.313 14.23-16.836 12.102-42.117-4.75-56.363-16.746-14.113-41.832-12.086-56.102 4.46l-58.992 60.634c-7.449-9.168-18.808-14.883-31.082-14.883h-111.48c-15.864-6.637-32.696-9.996-50.063-9.996-48.14 0-90.176 22.234-112.734 63.922-9.504-1.801-19.528 1.074-26.738 8.285L3.418 381.836c-3.883 3.894-3.89 10.195-.016 14.102zm74.793-227.121c15.313 0 30.118 3.082 44.012 9.16a9.979 9.979 0 004.008.84h113.527c10.84 0 19.996 8.84 19.996 19.992 0 11.027-8.968 19.996-19.996 19.996h-81.566c-5.52 0-9.996 4.477-9.996 9.996 0 5.524 4.476 9.996 9.996 9.996h81.566c22.051 0 39.988-17.937 39.988-39.988 0-1.758-.125-3.5-.351-5.227 57.066-58.66 65.113-66.902 65.457-67.312 7.125-8.41 19.773-9.477 28.187-2.383 8.422 7.121 9.489 19.762 2.344 28.219L397.95 372.406c-13.094 12.57-30.285 19.489-48.457 19.489H216.59c-13.024 0-25.352 4.98-34.703 14.015l-8.496 8.2-78.32-78.317c18.304-34.34 52.652-53.871 95.374-53.871zm-125.32 66.344c3.297-3.297 8.36-3.891 12.379-1.407 1.73 1.055-3.238-3.468 86.59 86.235 3.996 3.996 3.781 10.363.054 14.09l-41.32 40.707-98.23-98.98zm0 0M286.422 49.988v11.715c-11.637 4.125-19.996 15.238-19.996 28.274 0 16.535 13.453 29.992 29.992 29.992 5.512 0 9.996 4.484 9.996 9.996 0 5.512-4.484 9.996-9.996 9.996-4.27 0-8.883-2.684-12.98-7.563-3.555-4.226-9.86-4.77-14.086-1.218-4.227 3.554-4.774 9.86-1.22 14.086 5.345 6.355 11.63 10.785 18.29 13.02v11.667c0 5.524 4.476 9.996 9.996 9.996s9.996-4.472 9.996-9.996v-11.715c11.637-4.129 19.996-15.242 19.996-28.273 0-16.54-13.453-29.992-29.992-29.992-5.512 0-9.996-4.485-9.996-9.996 0-5.512 4.484-10 9.996-10 3.543 0 7.281 1.808 10.812 5.226 3.97 3.84 10.297 3.734 14.137-.23 3.84-3.97 3.735-10.297-.23-14.137-5.075-4.91-10.153-7.688-14.723-9.203V49.988c0-5.523-4.477-10-9.996-10s-9.996 4.477-9.996 10zm0 0"/>
    </svg>
    <svg viewBox="0 0 20 20" id="plane-in" xmlns="http://www.w3.org/2000/svg">
        <path d="M.455 19.546c-.417-.493-.474-1.194-.17-2.103A6.2 6.2 0 011.817 15l2.287-2.287-2.273-9.886c-.047-.18.01-.336.17-.469L3.823.994A.401.401 0 014.09.91c.038 0 .071.005.1.014a.393.393 0 01.298.228l3.963 7.216 3.679-3.68-.753-2.755a.432.432 0 01.114-.44L12.854.128A.442.442 0 0113.182 0h.028a.51.51 0 01.341.185l2.685 3.58 3.58 2.684c.104.066.165.175.184.327a.487.487 0 01-.128.355L18.51 8.509a.443.443 0 01-.327.127.296.296 0 01-.114-.014l-2.755-.753-3.68 3.68 7.216 3.962c.133.076.214.19.242.341a.438.438 0 01-.128.384l-1.818 1.818c-.133.123-.275.161-.426.114l-9.446-2.259L5 18.182a6.2 6.2 0 01-2.443 1.534c-.91.303-1.61.246-2.102-.17z"/>
    </svg>
    <svg viewBox="0 0 20 20" id="plane-out" xmlns="http://www.w3.org/2000/svg">
        <path d="M19.545.455c.417.492.474 1.193.17 2.102A6.2 6.2 0 0118.183 5l-2.287 2.287 2.273 9.886c.047.18-.01.336-.17.469l-1.82 1.364a.4.4 0 01-.269.085.317.317 0 01-.1-.014.393.393 0 01-.298-.228l-3.963-7.216-3.679 3.68.753 2.755a.433.433 0 01-.114.44l-1.363 1.364a.443.443 0 01-.327.128H6.79a.51.51 0 01-.341-.185l-2.685-3.58-3.58-2.684C.08 13.485.02 13.376 0 13.224a.487.487 0 01.128-.355l1.363-1.378a.442.442 0 01.327-.127c.057 0 .095.004.114.014l2.755.753 3.68-3.68L1.15 4.49a.476.476 0 01-.242-.341.438.438 0 01.128-.384l1.818-1.818c.133-.123.275-.161.426-.114l9.446 2.259L15 1.818A6.2 6.2 0 0117.443.284c.91-.303 1.61-.246 2.102.17z"/>
    </svg>
    <svg viewBox="0 0 50 50" id="question" xmlns="http://www.w3.org/2000/svg">
        <path d="M25 50c-3.385 0-6.624-.66-9.717-1.977C12.191 46.703 9.53 44.93 7.3 42.7c-2.23-2.23-4.004-4.89-5.322-7.983A24.526 24.526 0 010 25c0-3.385.66-6.624 1.978-9.717C3.296 12.191 5.07 9.53 7.3 7.3c2.23-2.23 4.89-4.004 7.983-5.322A24.526 24.526 0 0125 0c3.385 0 6.624.66 9.717 1.978C37.809 3.296 40.47 5.07 42.7 7.3c2.23 2.23 4.004 4.89 5.322 7.983A24.527 24.527 0 0150 25c0 3.385-.66 6.624-1.977 9.717-1.319 3.092-3.093 5.753-5.323 7.983-2.23 2.23-4.89 4.004-7.983 5.322A24.527 24.527 0 0125 50zm.024-6.25c.863 0 1.595-.301 2.198-.903.602-.602.903-1.335.903-2.198 0-.862-.301-1.603-.903-2.221a2.951 2.951 0 00-2.198-.928c-.862 0-1.603.31-2.221.928-.619.618-.928 1.359-.928 2.221 0 .863.31 1.596.928 2.198.618.602 1.359.903 2.221.903zM25 6.25c-3.45 0-6.396 1.22-8.838 3.662C13.721 12.353 12.5 15.3 12.5 18.75c0 .879.301 1.62.903 2.222.602.602 1.335.903 2.198.903.862 0 1.603-.301 2.221-.903.619-.603.928-1.343.928-2.222 0-1.725.61-3.198 1.831-4.419 1.22-1.22 2.694-1.831 4.419-1.831 1.725 0 3.198.61 4.419 1.831 1.22 1.22 1.831 2.694 1.831 4.419 0 1.725-.61 3.198-1.831 4.419C28.199 24.389 26.725 25 25 25c-.846 0-1.579.643-2.197 1.929-.619 1.286-.928 2.726-.928 4.321 0 .879.301 1.62.903 2.222.603.602 1.343.903 2.222.903s1.62-.301 2.222-.903c.602-.602.903-1.343.903-2.222v-.39c2.734-.717 4.98-2.198 6.738-4.444S37.5 21.615 37.5 18.75c0-3.45-1.22-6.396-3.662-8.838C31.396 7.471 28.45 6.25 25 6.25z"/>
    </svg>
    <svg fill="none" viewBox="0 0 13 15" id="rouble" xmlns="http://www.w3.org/2000/svg">
        <path d="M2.667 14.5h1.666V12h5v-1.667h-5V8.667h3.75A4.171 4.171 0 0012.25 4.5 4.171 4.171 0 008.083.333H3.5a.833.833 0 00-.833.834V7h-2.5v1.667h2.5v1.666h-2.5V12h2.5v2.5zM4.333 2h3.75c1.379 0 2.5 1.122 2.5 2.5S9.462 7 8.083 7h-3.75V2z"
              fill="#fff"/>
    </svg>
    <svg viewBox="0 0 512 512" id="search" xmlns="http://www.w3.org/2000/svg">
        <path d="M225.474 0C101.151 0 0 101.151 0 225.474c0 124.33 101.151 225.474 225.474 225.474 124.33 0 225.474-101.144 225.474-225.474C450.948 101.151 349.804 0 225.474 0zm0 409.323c-101.373 0-183.848-82.475-183.848-183.848S124.101 41.626 225.474 41.626s183.848 82.475 183.848 183.848-82.475 183.849-183.848 183.849z"/>
        <path d="M505.902 476.472L386.574 357.144c-8.131-8.131-21.299-8.131-29.43 0-8.131 8.124-8.131 21.306 0 29.43l119.328 119.328A20.74 20.74 0 00491.187 512a20.754 20.754 0 0014.715-6.098c8.131-8.124 8.131-21.306 0-29.43z"/>
    </svg>
    <svg viewBox="0 0 57.884 57.884" id="share" xmlns="http://www.w3.org/2000/svg">
        <path d="M45.975 37.031a10.386 10.386 0 00-7.69 3.4l-16.566-7.968c.396-1.103.622-2.282.622-3.521 0-1.237-.227-2.418-.622-3.521l16.566-7.966a10.396 10.396 0 007.69 3.402c5.759 0 10.429-4.669 10.429-10.428C56.404 4.669 51.734 0 45.975 0c-5.76 0-10.429 4.669-10.429 10.429 0 .552.056 1.09.139 1.619L18.05 20.527a10.368 10.368 0 00-6.141-2.012c-5.759 0-10.428 4.668-10.428 10.425 0 5.762 4.669 10.43 10.428 10.43 2.299 0 4.417-.752 6.14-2.014l17.634 8.481a10.535 10.535 0 00-.139 1.619c0 5.76 4.67 10.428 10.43 10.428 5.759 0 10.428-4.668 10.428-10.428 0-5.759-4.668-10.425-10.427-10.425z"/>
    </svg>
    <svg viewBox="0 0 30 30" id="sq-fb" xmlns="http://www.w3.org/2000/svg">
        <path d="M5.478 0A5.466 5.466 0 000 5.478v19.044A5.466 5.466 0 005.478 30H15.8V18.272h-3.102v-4.223H15.8v-3.607c0-2.834 1.832-5.437 6.053-5.437 1.71 0 2.973.164 2.973.164l-.1 3.944S23.439 9.1 22.032 9.1c-1.522 0-1.766.702-1.766 1.866v3.083h4.582l-.2 4.223h-4.382V30h4.257A5.466 5.466 0 0030 24.522V5.478A5.466 5.466 0 0024.522 0H5.478z"/>
    </svg>
    <svg viewBox="0 0 30 30" id="sq-instagram" xmlns="http://www.w3.org/2000/svg">
        <path d="M15 10a5 5 0 100 10 5 5 0 000-10z"/>
        <path fill-rule="evenodd" clip-rule="evenodd"
              d="M9 0a9 9 0 00-9 9v12a9 9 0 009 9h12a9 9 0 009-9V9a9 9 0 00-9-9H9zM8 15a7 7 0 1114 0 7 7 0 01-14 0zm14-7h2V6h-2v2z"/>
    </svg>
    <svg viewBox="0 0 30 30" id="sq-vk" xmlns="http://www.w3.org/2000/svg">
        <path d="M19.605 0h-9.21C1.99 0 0 1.99 0 10.395v9.21C0 28.01 1.99 30 10.395 30h9.21C28.01 30 30 28.01 30 19.605v-9.21C30 1.99 27.989 0 19.605 0zm4.615 21.404h-2.18c-.825 0-1.08-.657-2.563-2.159-1.29-1.25-1.862-1.419-2.18-1.419-.445 0-.572.128-.572.741v1.97c0 .53-.169.847-1.566.847-2.308 0-4.87-1.398-6.669-4.003-2.71-3.81-3.453-6.668-3.453-7.261 0-.317.128-.614.742-.614h2.18c.55 0 .762.254.975.846 1.079 3.113 2.879 5.844 3.62 5.844.275 0 .402-.127.402-.825v-3.22c-.085-1.482-.868-1.608-.868-2.137 0-.255.212-.509.55-.509h3.43c.466 0 .634.254.634.804v4.341c0 .465.213.635.34.635.274 0 .508-.17 1.015-.678 1.568-1.757 2.69-4.467 2.69-4.467.148-.318.402-.614.953-.614h2.18c.656 0 .805.338.656.804-.275 1.271-2.942 5.039-2.942 5.039-.233.381-.318.55 0 .975.232.317.995.973 1.503 1.566.932 1.059 1.65 1.948 1.842 2.563.212.612-.107.93-.72.93h.001z"/>
    </svg>
    <svg viewBox="0 0 24 24" id="telegram" xmlns="http://www.w3.org/2000/svg">
        <circle cx="12" cy="12" fill="#039be5" r="12"/>
        <path d="M5.491 11.74l11.57-4.461c.537-.194 1.006.131.832.943l.001-.001-1.97 9.281c-.146.658-.537.818-1.084.508l-3-2.211-1.447 1.394c-.16.16-.295.295-.605.295l.213-3.053 5.56-5.023c.242-.213-.054-.333-.373-.121l-6.871 4.326-2.962-.924c-.643-.204-.657-.643.136-.953z"
              fill="#fff"/>
    </svg>
    <svg shape-rendering="geometricPrecision" text-rendering="geometricPrecision" image-rendering="optimizeQuality"
         fill-rule="evenodd" clip-rule="evenodd" viewBox="0 0 512 512" id="tiktok" xmlns="http://www.w3.org/2000/svg">
        <defs>
            <style>.byfil0{fill:#000}</style>
        </defs>
        <path class="byfil0"
              d="M256 0c141.39 0 256 114.61 256 256S397.39 512 256 512 0 397.39 0 256 114.61 0 256 0zm57.5 106.01c.01 4.58 1.36 70.83 70.87 74.96 0 19.1.02 32.95.02 51.18-5.26.3-45.76-2.64-70.97-25.12l-.08 99.64c.96 69.16-49.93 111.24-116.46 96.7-114.71-34.31-76.59-204.44 38.59-186.24 0 54.93.03-.01.03 54.93-47.58-7-63.5 32.58-50.85 60.93 11.5 25.8 58.88 31.39 75.41-5.01 1.87-7.12 2.8-15.25 2.8-24.37V105.76l50.64.25z"
              id="byLayer_x0020_1"/>
    </svg>
    <svg viewBox="0 0 502 502" id="travel" xmlns="http://www.w3.org/2000/svg">
        <path d="M365.264 291.968c24.91-48.61 37.536-86.693 37.536-113.318C402.8 80.142 322.658 0 224.15 0S45.5 80.142 45.5 178.65c0 95.435 163.74 310.329 170.711 319.431a9.998 9.998 0 0015.878 0c.146-.19 12.993-16.99 31.323-42.833C282.373 483.425 314.557 502 351 502c58.173 0 105.5-47.327 105.5-105.5 0-53.335-39.785-97.547-91.236-104.532zM252.935 435.403a1880.202 1880.202 0 01-28.783 39.932c-14.17-19.109-45.221-61.926-75.952-110.547-54.103-85.601-82.7-149.967-82.7-186.138C65.5 91.17 136.67 20 224.15 20S382.8 91.17 382.8 178.65c0 24.924-13.365 62.809-39.73 112.647-54.483 4.068-97.57 49.697-97.57 105.203 0 13.733 2.64 26.859 7.435 38.903zM351 482c-47.145 0-85.5-38.355-85.5-85.5S303.855 311 351 311s85.5 38.355 85.5 85.5S398.145 482 351 482z"/>
        <path d="M388.429 360.429L331 417.857l-21.929-21.929c-3.905-3.904-10.237-3.904-14.143 0-3.905 3.905-3.905 10.237 0 14.143l29 29A9.966 9.966 0 00331 442a9.961 9.961 0 007.071-2.929l64.5-64.5c3.905-3.905 3.905-10.237 0-14.143-3.905-3.905-10.237-3.905-14.142.001zM328.954 178.65c0-57.789-47.015-104.803-104.804-104.803S119.347 120.862 119.347 178.65c0 57.789 47.015 104.804 104.803 104.804 57.789 0 104.804-47.015 104.804-104.804zM224.15 263.454c-46.761 0-84.803-38.043-84.803-84.804s38.042-84.803 84.803-84.803c46.761 0 84.804 38.042 84.804 84.803 0 46.761-38.043 84.804-84.804 84.804z"/>
        <path d="M135.153 90.081c2.39 0 4.788-.852 6.701-2.58 22.593-20.412 51.819-31.654 82.296-31.654 17.038 0 33.525 3.42 49.006 10.165 5.063 2.207 10.956-.11 13.162-5.173s-.11-10.956-5.173-13.162c-18.016-7.85-37.192-11.83-56.995-11.83-35.44 0-69.428 13.074-95.704 36.814-4.098 3.702-4.418 10.026-.716 14.124a9.973 9.973 0 007.423 3.296zM111.143 108.146c-4.889-2.566-10.935-.685-13.502 4.205-10.659 20.3-16.293 43.226-16.293 66.299 0 5.523 4.477 10 10 10s10-4.477 10-10c0-19.847 4.841-39.558 14-57.001 2.567-4.89.684-10.936-4.205-13.503z"/>
    </svg>
    <svg viewBox="0 0 330 330" id="up-arrow" xmlns="http://www.w3.org/2000/svg">
        <path d="M165 0C74.019 0 0 74.019 0 165s74.019 165 165 165 165-74.019 165-165S255.981 0 165 0zm90.606 205.606C252.678 208.535 248.839 210 245 210s-7.678-1.464-10.606-4.394l-69.396-69.393-69.392 69.393c-5.857 5.858-15.355 5.858-21.213 0-5.858-5.857-5.858-15.355 0-21.213l79.998-80a15 15 0 0121.213 0l80.002 80c5.859 5.858 5.859 15.356 0 21.213z"/>
    </svg>
    <svg aria-hidden="true" data-prefix="fab" data-icon="viber" class="cbsvg-inline--fa cbfa-viber cbfa-w-16"
         viewBox="0 0 512 512" id="viber" xmlns="http://www.w3.org/2000/svg">
        <path fill="#665cac"
              d="M444 49.9C431.3 38.2 379.9.9 265.3.4c0 0-135.1-8.1-200.9 52.3C27.8 89.3 14.9 143 13.5 209.5c-1.4 66.5-3.1 191.1 117 224.9h.1l-.1 51.6s-.8 20.9 13 25.1c16.6 5.2 26.4-10.7 42.3-27.8 8.7-9.4 20.7-23.2 29.8-33.7 82.2 6.9 145.3-8.9 152.5-11.2 16.6-5.4 110.5-17.4 125.7-142 15.8-128.6-7.6-209.8-49.8-246.5zM457.9 287c-12.9 104-89 110.6-103 115.1-6 1.9-61.5 15.7-131.2 11.2 0 0-52 62.7-68.2 79-5.3 5.3-11.1 4.8-11-5.7 0-6.9.4-85.7.4-85.7-.1 0-.1 0 0 0-101.8-28.2-95.8-134.3-94.7-189.8 1.1-55.5 11.6-101 42.6-131.6 55.7-50.5 170.4-43 170.4-43 96.9.4 143.3 29.6 154.1 39.4 35.7 30.6 53.9 103.8 40.6 211.1zm-139-80.8c.4 8.6-12.5 9.2-12.9.6-1.1-22-11.4-32.7-32.6-33.9-8.6-.5-7.8-13.4.7-12.9 27.9 1.5 43.4 17.5 44.8 46.2zm20.3 11.3c1-42.4-25.5-75.6-75.8-79.3-8.5-.6-7.6-13.5.9-12.9 58 4.2 88.9 44.1 87.8 92.5-.1 8.6-13.1 8.2-12.9-.3zm47 13.4c.1 8.6-12.9 8.7-12.9.1-.6-81.5-54.9-125.9-120.8-126.4-8.5-.1-8.5-12.9 0-12.9 73.7.5 133 51.4 133.7 139.2zM374.9 329v.2c-10.8 19-31 40-51.8 33.3l-.2-.3c-21.1-5.9-70.8-31.5-102.2-56.5-16.2-12.8-31-27.9-42.4-42.4-10.3-12.9-20.7-28.2-30.8-46.6-21.3-38.5-26-55.7-26-55.7-6.7-20.8 14.2-41 33.3-51.8h.2c9.2-4.8 18-3.2 23.9 3.9 0 0 12.4 14.8 17.7 22.1 5 6.8 11.7 17.7 15.2 23.8 6.1 10.9 2.3 22-3.7 26.6l-12 9.6c-6.1 4.9-5.3 14-5.3 14s17.8 67.3 84.3 84.3c0 0 9.1.8 14-5.3l9.6-12c4.6-6 15.7-9.8 26.6-3.7 14.7 8.3 33.4 21.2 45.8 32.9 7 5.7 8.6 14.4 3.8 23.6z"/>
    </svg>
    <svg clip-rule="evenodd" fill-rule="evenodd" viewBox="0 0 560 400" id="visa-logo"
         xmlns="http://www.w3.org/2000/svg">
        <path d="M286.87 176.71c-.228 17.993 16.036 28.034 28.287 34.004 12.588 6.126 16.816 10.054 16.768 15.531-.096 8.384-10.042 12.083-19.35 12.227-16.24.252-25.681-4.384-33.188-7.891l-5.849 27.373c7.531 3.472 21.476 6.499 35.938 6.631 33.944 0 56.152-16.756 56.273-42.736.132-32.971-45.607-34.797-45.295-49.535.108-4.468 4.372-9.237 13.717-10.45 4.624-.612 17.392-1.081 31.866 5.585l5.681-26.484c-7.783-2.835-17.789-5.55-30.244-5.55-31.95 0-54.423 16.984-54.604 41.295m139.44-39.013c-6.198 0-11.423 3.616-13.753 9.165l-48.49 115.777h33.92l6.75-18.654h41.451l3.916 18.654H480l-26.089-124.942zm4.744 33.752l9.789 46.916h-26.809zm-185.31-33.752l-26.737 124.942h32.322l26.725-124.942zm-47.817 0l-33.644 85.04-13.609-72.308c-1.597-8.071-7.903-12.732-14.906-12.732H80.769L80 141.325c11.291 2.45 24.119 6.402 31.89 10.63 4.756 2.582 6.114 4.84 7.675 10.978l25.776 99.706h34.161l52.369-124.942z"
              fill="#1a1f71"/>
    </svg>
    <svg viewBox="0 0 112.196 112.196" id="vk" xmlns="http://www.w3.org/2000/svg">
        <circle cx="56.098" cy="56.098" r="56.098" fill="#4d76a1"/>
        <path d="M53.979 80.702h4.403s1.33-.146 2.009-.878c.625-.672.605-1.934.605-1.934s-.086-5.908 2.656-6.778c2.703-.857 6.174 5.71 9.853 8.235 2.782 1.911 4.896 1.492 4.896 1.492l9.837-.137s5.146-.317 2.706-4.363c-.2-.331-1.421-2.993-7.314-8.463-6.168-5.725-5.342-4.799 2.088-14.702 4.525-6.031 6.334-9.713 5.769-11.29-.539-1.502-3.867-1.105-3.867-1.105l-11.076.069s-.821-.112-1.43.252c-.595.357-.978 1.189-.978 1.189s-1.753 4.667-4.091 8.636c-4.932 8.375-6.904 8.817-7.71 8.297-1.875-1.212-1.407-4.869-1.407-7.467 0-8.116 1.231-11.5-2.397-12.376-1.204-.291-2.09-.483-5.169-.514-3.952-.041-7.297.012-9.191.94-1.26.617-2.232 1.992-1.64 2.071.732.098 2.39.447 3.269 1.644 1.135 1.544 1.095 5.012 1.095 5.012s.652 9.554-1.523 10.741c-1.493.814-3.541-.848-7.938-8.446-2.253-3.892-3.954-8.194-3.954-8.194s-.328-.804-.913-1.234c-.71-.521-1.702-.687-1.702-.687l-10.525.069s-1.58.044-2.16.731c-.516.611-.041 1.875-.041 1.875s8.24 19.278 17.57 28.993c8.555 8.907 18.27 8.322 18.27 8.322z"
              fill-rule="evenodd" clip-rule="evenodd" fill="#fff"/>
    </svg>
    <svg viewBox="0 0 512 512" id="whatsapp" xmlns="http://www.w3.org/2000/svg">
        <path d="M256.064 0h-.128C114.784 0 0 114.816 0 256c0 56 18.048 107.904 48.736 150.048l-31.904 95.104 98.4-31.456C155.712 496.512 204 512 256.064 512 397.216 512 512 397.152 512 256S397.216 0 256.064 0z"
              fill="#4caf50"/>
        <path d="M405.024 361.504c-6.176 17.44-30.688 31.904-50.24 36.128-13.376 2.848-30.848 5.12-89.664-19.264-75.232-31.168-123.68-107.616-127.456-112.576-3.616-4.96-30.4-40.48-30.4-77.216s18.656-54.624 26.176-62.304c6.176-6.304 16.384-9.184 26.176-9.184 3.168 0 6.016.16 8.576.288 7.52.32 11.296.768 16.256 12.64 6.176 14.88 21.216 51.616 23.008 55.392 1.824 3.776 3.648 8.896 1.088 13.856-2.4 5.12-4.512 7.392-8.288 11.744-3.776 4.352-7.36 7.68-11.136 12.352-3.456 4.064-7.36 8.416-3.008 15.936 4.352 7.36 19.392 31.904 41.536 51.616 28.576 25.44 51.744 33.568 60.032 37.024 6.176 2.56 13.536 1.952 18.048-2.848 5.728-6.176 12.8-16.416 20-26.496 5.12-7.232 11.584-8.128 18.368-5.568 6.912 2.4 43.488 20.48 51.008 24.224 7.52 3.776 12.48 5.568 14.304 8.736 1.792 3.168 1.792 18.048-4.384 35.52z"
              fill="#fafafa"/>
    </svg>
</svg>