<svg width="17" height="16" viewBox="0 0 17 16" fill="none" xmlns="http://www.w3.org/2000/svg">
<path d="M12.1406 8.11458C12.1406 7.91925 12.0625 7.73957 11.9141 7.59894L5.72656 1.53644C5.58594 1.40363 5.41406 1.33331 5.21094 1.33331C4.8125 1.33331 4.5 1.638 4.5 2.04425C4.5 2.23957 4.57813 2.41925 4.70313 2.55206L10.3906 8.11458L4.70313 13.677C4.57813 13.8098 4.5 13.9818 4.5 14.1848C4.5 14.5911 4.8125 14.8958 5.21094 14.8958C5.41406 14.8958 5.58594 14.8255 5.72656 14.6848L11.9141 8.63018C12.0625 8.48178 12.1406 8.30985 12.1406 8.11458Z" fill="#667085"/>
</svg>
